<mxfile host="app.diagrams.net" modified="2022-08-10T18:18:41.356Z" agent="5.0 (Windows NT 10.0; Win64; x64) AppleWebKit/537.36 (KHTML, like Gecko) Chrome/96.0.4664.45 Safari/537.36" etag="OTToomhsJ-xC2UVv1B3V" version="20.2.3" type="github" pages="2">
  <diagram id="g7usEjnd5ee0Ly5ZbJtn" name="Page-1">
    <mxGraphModel dx="779" dy="394" grid="1" gridSize="10" guides="1" tooltips="1" connect="1" arrows="1" fold="1" page="1" pageScale="1" pageWidth="850" pageHeight="1100" math="0" shadow="0">
      <root>
        <mxCell id="0" />
        <mxCell id="1" parent="0" />
        <mxCell id="K6NKCnMjnbAVRSnIbpeF-34" value="AIMSUN: traffic simulation" style="rounded=1;align=center;verticalAlign=top;fontSize=11;fontStyle=0;strokeColor=#666666;fillColor=#f5f5f5;fontColor=#333333;glass=0;" parent="1" vertex="1">
          <mxGeometry x="150" y="809.76" width="194.06" height="140.24" as="geometry" />
        </mxCell>
        <mxCell id="K6NKCnMjnbAVRSnIbpeF-35" value="" style="edgeStyle=orthogonalEdgeStyle;rounded=0;orthogonalLoop=1;jettySize=auto;endArrow=blockThin;endFill=1;startArrow=blockThin;startFill=1;" parent="1" source="K6NKCnMjnbAVRSnIbpeF-37" target="K6NKCnMjnbAVRSnIbpeF-38" edge="1">
          <mxGeometry relative="1" as="geometry" />
        </mxCell>
        <mxCell id="K6NKCnMjnbAVRSnIbpeF-36" value="" style="edgeStyle=orthogonalEdgeStyle;rounded=0;orthogonalLoop=1;jettySize=auto;startArrow=blockThin;startFill=1;endArrow=blockThin;endFill=1;strokeWidth=1;" parent="1" source="K6NKCnMjnbAVRSnIbpeF-37" target="K6NKCnMjnbAVRSnIbpeF-38" edge="1">
          <mxGeometry relative="1" as="geometry" />
        </mxCell>
        <mxCell id="K6NKCnMjnbAVRSnIbpeF-37" value="API Module" style="rounded=1;align=center;verticalAlign=top;fontSize=10;fontStyle=0;fillColor=#dae8fc;strokeColor=#6c8ebf;" parent="1" vertex="1">
          <mxGeometry x="260" y="842.01" width="63.98" height="91.99" as="geometry" />
        </mxCell>
        <mxCell id="K6NKCnMjnbAVRSnIbpeF-38" value="Traffic&#xa;Simulation&#xa;Model" style="rounded=1;align=center;verticalAlign=middle;fontSize=10;fontStyle=0;fillColor=#fff2cc;strokeColor=#d6b656;gradientColor=#ffd966;" parent="1" vertex="1">
          <mxGeometry x="161.9" y="853.0699999999999" width="70.08" height="70.866" as="geometry" />
        </mxCell>
        <mxCell id="K6NKCnMjnbAVRSnIbpeF-39" value="UDP Socket" style="rounded=1;align=center;verticalAlign=middle;fillColor=#d5e8d4;strokeColor=#82b366;fontSize=10;fontStyle=0;" parent="1" vertex="1">
          <mxGeometry x="371.9" y="866.15" width="64.21" height="43.71" as="geometry" />
        </mxCell>
        <mxCell id="K6NKCnMjnbAVRSnIbpeF-40" value="ROS: on-vehicle simulation" style="rounded=1;align=center;verticalAlign=top;fontSize=11;fontStyle=0;strokeColor=#666666;fillColor=#f5f5f5;fontColor=#333333;glass=0;" parent="1" vertex="1">
          <mxGeometry x="463.9" y="810" width="186.1" height="140" as="geometry" />
        </mxCell>
        <mxCell id="K6NKCnMjnbAVRSnIbpeF-42" value="Data&#xa;Visulization&#xa;(GUI)" style="rounded=1;align=center;verticalAlign=middle;fontSize=10;fontStyle=0;strokeColor=#432D57;fillColor=#E6E6E6;" parent="1" vertex="1">
          <mxGeometry x="567.99" y="852.5699999999999" width="70.0786" height="70.866" as="geometry" />
        </mxCell>
        <mxCell id="K6NKCnMjnbAVRSnIbpeF-43" value="" style="rounded=0;orthogonalLoop=1;jettySize=auto;startArrow=blockThin;startFill=1;endArrow=none;endFill=0;strokeWidth=1;exitX=-0.012;exitY=0.247;exitDx=0;exitDy=0;exitPerimeter=0;" parent="1" source="K6NKCnMjnbAVRSnIbpeF-39" edge="1">
          <mxGeometry relative="1" as="geometry">
            <mxPoint x="373.9" y="877" as="sourcePoint" />
            <mxPoint x="345" y="877" as="targetPoint" />
          </mxGeometry>
        </mxCell>
        <mxCell id="K6NKCnMjnbAVRSnIbpeF-44" value="" style="rounded=0;orthogonalLoop=1;jettySize=auto;startArrow=blockThin;startFill=1;endArrow=none;endFill=0;strokeWidth=1;entryX=1;entryY=0.25;entryDx=0;entryDy=0;" parent="1" target="K6NKCnMjnbAVRSnIbpeF-39" edge="1">
          <mxGeometry relative="1" as="geometry">
            <mxPoint x="464.9" y="877" as="sourcePoint" />
            <mxPoint x="323.9" y="887.0775" as="targetPoint" />
          </mxGeometry>
        </mxCell>
        <mxCell id="K6NKCnMjnbAVRSnIbpeF-45" value="" style="edgeStyle=orthogonalEdgeStyle;rounded=0;orthogonalLoop=1;jettySize=auto;startArrow=blockThin;startFill=1;endArrow=none;endFill=0;strokeWidth=1;entryX=1;entryY=0.5;entryDx=0;entryDy=0;" parent="1" source="K6NKCnMjnbAVRSnIbpeF-42" target="-QNfoEiQIN1xO6m_8FKs-46" edge="1">
          <mxGeometry relative="1" as="geometry">
            <mxPoint x="490.08000000000004" y="886.56" as="sourcePoint" />
            <mxPoint x="548.0030999999999" y="888.5" as="targetPoint" />
            <Array as="points">
              <mxPoint x="550" y="888" />
              <mxPoint x="550" y="861" />
            </Array>
          </mxGeometry>
        </mxCell>
        <mxCell id="K6NKCnMjnbAVRSnIbpeF-56" value="" style="edgeStyle=orthogonalEdgeStyle;rounded=0;orthogonalLoop=1;jettySize=auto;startArrow=none;startFill=0;endArrow=blockThin;endFill=1;strokeWidth=1;entryX=0.999;entryY=0.776;entryDx=0;entryDy=0;entryPerimeter=0;" parent="1" target="K6NKCnMjnbAVRSnIbpeF-39" edge="1">
          <mxGeometry relative="1" as="geometry">
            <mxPoint x="463.89999999999975" y="900" as="sourcePoint" />
            <mxPoint x="443.9" y="900" as="targetPoint" />
            <Array as="points">
              <mxPoint x="450.9" y="900" />
            </Array>
          </mxGeometry>
        </mxCell>
        <mxCell id="K6NKCnMjnbAVRSnIbpeF-57" value="" style="rounded=0;orthogonalLoop=1;jettySize=auto;startArrow=none;startFill=0;endArrow=blockThin;endFill=1;strokeWidth=1;entryX=0.995;entryY=0.644;entryDx=0;entryDy=0;entryPerimeter=0;exitX=0.003;exitY=0.771;exitDx=0;exitDy=0;exitPerimeter=0;" parent="1" source="K6NKCnMjnbAVRSnIbpeF-39" target="K6NKCnMjnbAVRSnIbpeF-34" edge="1">
          <mxGeometry relative="1" as="geometry">
            <mxPoint x="363.9" y="900" as="sourcePoint" />
            <mxPoint x="348.0457899999999" y="900.06896" as="targetPoint" />
          </mxGeometry>
        </mxCell>
        <mxCell id="K6NKCnMjnbAVRSnIbpeF-58" value="" style="edgeStyle=orthogonalEdgeStyle;rounded=0;orthogonalLoop=1;jettySize=auto;startArrow=none;startFill=0;endArrow=none;endFill=0;strokeWidth=1;" parent="1" edge="1">
          <mxGeometry relative="1" as="geometry">
            <mxPoint x="344.9" y="876.9999999999998" as="sourcePoint" />
            <mxPoint x="272" y="876.9999999999998" as="targetPoint" />
            <Array as="points">
              <mxPoint x="322.9" y="877" />
              <mxPoint x="322.9" y="877" />
            </Array>
          </mxGeometry>
        </mxCell>
        <mxCell id="K6NKCnMjnbAVRSnIbpeF-59" value="TrafficInf" style="edgeLabel;align=center;verticalAlign=middle;resizable=0;points=[];fontSize=8;labelBackgroundColor=none;" parent="K6NKCnMjnbAVRSnIbpeF-58" vertex="1" connectable="0">
          <mxGeometry x="-0.195" y="2" relative="1" as="geometry">
            <mxPoint x="-29.03" y="-7" as="offset" />
          </mxGeometry>
        </mxCell>
        <mxCell id="K6NKCnMjnbAVRSnIbpeF-64" value="" style="edgeStyle=orthogonalEdgeStyle;rounded=0;orthogonalLoop=1;jettySize=auto;startArrow=none;startFill=0;endArrow=none;endFill=0;strokeWidth=1;" parent="1" edge="1">
          <mxGeometry relative="1" as="geometry">
            <mxPoint x="343.9" y="899.9999999999998" as="sourcePoint" />
            <mxPoint x="270" y="900" as="targetPoint" />
            <Array as="points">
              <mxPoint x="321.9" y="900" />
              <mxPoint x="321.9" y="900" />
            </Array>
          </mxGeometry>
        </mxCell>
        <mxCell id="K6NKCnMjnbAVRSnIbpeF-65" value="EgoVehicelInf" style="edgeLabel;align=center;verticalAlign=middle;resizable=0;points=[];fontSize=8;labelBackgroundColor=none;" parent="K6NKCnMjnbAVRSnIbpeF-64" vertex="1" connectable="0">
          <mxGeometry x="-0.195" y="2" relative="1" as="geometry">
            <mxPoint x="-19.03" y="-7" as="offset" />
          </mxGeometry>
        </mxCell>
        <mxCell id="tJCZRqBJ2CxmemZXy25r-1" value="Human Driver" style="rounded=1;align=center;verticalAlign=middle;fontSize=10;fontStyle=0;fillColor=#F8CBAD;strokeColor=#578EC0;arcSize=10;" parent="1" vertex="1">
          <mxGeometry x="566.9" y="990" width="80.88" height="30" as="geometry" />
        </mxCell>
        <mxCell id="tJCZRqBJ2CxmemZXy25r-2" value="" style="rounded=0;orthogonalLoop=1;jettySize=auto;startArrow=blockThin;startFill=1;endArrow=none;endFill=0;strokeWidth=1;entryX=1;entryY=0.5;entryDx=0;entryDy=0;exitX=1;exitY=0.5;exitDx=0;exitDy=0;edgeStyle=orthogonalEdgeStyle;dashed=1;" parent="1" source="tJCZRqBJ2CxmemZXy25r-1" target="K6NKCnMjnbAVRSnIbpeF-42" edge="1">
          <mxGeometry relative="1" as="geometry">
            <mxPoint x="381.12948000000006" y="886.94637" as="sourcePoint" />
            <mxPoint x="354.66048" y="887.1652" as="targetPoint" />
          </mxGeometry>
        </mxCell>
        <mxCell id="FIuZF2IC0c6RJkiDbf_0-8" value="DriverPerception" style="edgeLabel;align=center;verticalAlign=middle;resizable=0;points=[];fontSize=9;labelBackgroundColor=none;" parent="tJCZRqBJ2CxmemZXy25r-2" vertex="1" connectable="0">
          <mxGeometry x="-0.1602" relative="1" as="geometry">
            <mxPoint x="-37.730000000000004" y="11.98" as="offset" />
          </mxGeometry>
        </mxCell>
        <mxCell id="FIuZF2IC0c6RJkiDbf_0-1" value="Driving Console" style="rounded=1;align=center;verticalAlign=middle;fillColor=#d0cee2;strokeColor=#56517e;fontSize=9;fontStyle=0;" parent="1" vertex="1">
          <mxGeometry x="410" y="990" width="72.9" height="30" as="geometry" />
        </mxCell>
        <mxCell id="FIuZF2IC0c6RJkiDbf_0-3" value="" style="rounded=0;orthogonalLoop=1;jettySize=auto;startArrow=none;startFill=0;endArrow=blockThin;endFill=1;strokeWidth=1;entryX=1;entryY=0.5;entryDx=0;entryDy=0;exitX=0;exitY=0.5;exitDx=0;exitDy=0;" parent="1" source="tJCZRqBJ2CxmemZXy25r-1" target="FIuZF2IC0c6RJkiDbf_0-1" edge="1">
          <mxGeometry relative="1" as="geometry">
            <mxPoint x="448.30262999999985" y="1026.72041" as="sourcePoint" />
            <mxPoint x="419.2997000000001" y="1026.94456" as="targetPoint" />
          </mxGeometry>
        </mxCell>
        <mxCell id="FIuZF2IC0c6RJkiDbf_0-6" value="DriverOperation" style="edgeLabel;align=center;verticalAlign=middle;resizable=0;points=[];fontSize=9;" parent="FIuZF2IC0c6RJkiDbf_0-3" vertex="1" connectable="0">
          <mxGeometry x="-0.1623" y="2" relative="1" as="geometry">
            <mxPoint x="-2.48" y="-10" as="offset" />
          </mxGeometry>
        </mxCell>
        <mxCell id="FIuZF2IC0c6RJkiDbf_0-4" value="" style="rounded=0;orthogonalLoop=1;jettySize=auto;startArrow=blockThin;startFill=1;endArrow=none;endFill=0;strokeWidth=1;entryX=0;entryY=0.5;entryDx=0;entryDy=0;edgeStyle=orthogonalEdgeStyle;fillColor=#dae8fc;strokeColor=#3333FF;" parent="1" target="FIuZF2IC0c6RJkiDbf_0-1" edge="1">
          <mxGeometry relative="1" as="geometry">
            <mxPoint x="464" y="920" as="sourcePoint" />
            <mxPoint x="359.08860000000004" y="990.0029999999999" as="targetPoint" />
            <Array as="points">
              <mxPoint x="400" y="920" />
              <mxPoint x="400" y="1005" />
            </Array>
          </mxGeometry>
        </mxCell>
        <mxCell id="FIuZF2IC0c6RJkiDbf_0-7" value="DrivingCommand" style="edgeLabel;align=center;verticalAlign=middle;resizable=0;points=[];fontSize=9;labelBackgroundColor=none;" parent="FIuZF2IC0c6RJkiDbf_0-4" vertex="1" connectable="0">
          <mxGeometry x="-0.2633" y="1" relative="1" as="geometry">
            <mxPoint x="34.9" y="46.22" as="offset" />
          </mxGeometry>
        </mxCell>
        <mxCell id="-QNfoEiQIN1xO6m_8FKs-2" value="AIMSUN: traffic simulation" style="rounded=1;align=center;verticalAlign=top;fontSize=11;fontStyle=0;strokeColor=#666666;fillColor=#f5f5f5;fontColor=#333333;glass=0;" parent="1" vertex="1">
          <mxGeometry x="150" y="560" width="200.16" height="157.48" as="geometry" />
        </mxCell>
        <mxCell id="-QNfoEiQIN1xO6m_8FKs-3" value="" style="edgeStyle=orthogonalEdgeStyle;rounded=0;orthogonalLoop=1;jettySize=auto;endArrow=blockThin;endFill=1;startArrow=blockThin;startFill=1;" parent="1" source="-QNfoEiQIN1xO6m_8FKs-5" target="-QNfoEiQIN1xO6m_8FKs-6" edge="1">
          <mxGeometry relative="1" as="geometry" />
        </mxCell>
        <mxCell id="-QNfoEiQIN1xO6m_8FKs-4" value="" style="edgeStyle=orthogonalEdgeStyle;rounded=0;orthogonalLoop=1;jettySize=auto;startArrow=blockThin;startFill=1;endArrow=blockThin;endFill=1;strokeWidth=1;" parent="1" source="-QNfoEiQIN1xO6m_8FKs-5" target="-QNfoEiQIN1xO6m_8FKs-6" edge="1">
          <mxGeometry relative="1" as="geometry" />
        </mxCell>
        <mxCell id="-QNfoEiQIN1xO6m_8FKs-5" value="API Module" style="rounded=1;align=center;verticalAlign=top;fontSize=10;fontStyle=0;fillColor=#dae8fc;strokeColor=#6c8ebf;" parent="1" vertex="1">
          <mxGeometry x="260" y="588.01" width="70.0786" height="122.83439999999999" as="geometry" />
        </mxCell>
        <mxCell id="-QNfoEiQIN1xO6m_8FKs-6" value="Traffic&#xa;Simulation&#xa;Model" style="rounded=1;align=center;verticalAlign=middle;fontSize=10;fontStyle=0;fillColor=#fff2cc;strokeColor=#d6b656;gradientColor=#ffd966;" parent="1" vertex="1">
          <mxGeometry x="160" y="613.0699999999999" width="70.08" height="70.866" as="geometry" />
        </mxCell>
        <mxCell id="-QNfoEiQIN1xO6m_8FKs-7" value="UDP Socket" style="rounded=1;align=center;verticalAlign=middle;fillColor=#d5e8d4;strokeColor=#82b366;fontSize=10;fontStyle=0;" parent="1" vertex="1">
          <mxGeometry x="378" y="626.15" width="64.21" height="43.71" as="geometry" />
        </mxCell>
        <mxCell id="-QNfoEiQIN1xO6m_8FKs-8" value="ROS: on-vehicle simulation" style="rounded=1;align=center;verticalAlign=top;fontSize=11;fontStyle=0;strokeColor=#666666;fillColor=#f5f5f5;fontColor=#333333;glass=0;" parent="1" vertex="1">
          <mxGeometry x="470" y="560" width="200" height="157.48" as="geometry" />
        </mxCell>
        <mxCell id="-QNfoEiQIN1xO6m_8FKs-9" value="Receive" style="rounded=1;align=center;verticalAlign=top;fontSize=10;fontStyle=0;fillColor=#dae8fc;strokeColor=#6c8ebf;" parent="1" vertex="1">
          <mxGeometry x="489.93" y="588.01" width="70.866" height="52.99" as="geometry" />
        </mxCell>
        <mxCell id="-QNfoEiQIN1xO6m_8FKs-10" value="On-Vehicle &#xa;Simulation&#xa;Model" style="rounded=1;align=center;verticalAlign=middle;fontSize=10;fontStyle=0;fillColor=#fff2cc;strokeColor=#d6b656;gradientColor=#ffd966;" parent="1" vertex="1">
          <mxGeometry x="590" y="608" width="60" height="70.87" as="geometry" />
        </mxCell>
        <mxCell id="-QNfoEiQIN1xO6m_8FKs-11" value="" style="rounded=0;orthogonalLoop=1;jettySize=auto;startArrow=blockThin;startFill=1;endArrow=none;endFill=0;strokeWidth=1;entryX=1.003;entryY=0.49;entryDx=0;entryDy=0;exitX=-0.012;exitY=0.247;exitDx=0;exitDy=0;exitPerimeter=0;entryPerimeter=0;" parent="1" source="-QNfoEiQIN1xO6m_8FKs-7" target="-QNfoEiQIN1xO6m_8FKs-2" edge="1">
          <mxGeometry relative="1" as="geometry">
            <mxPoint x="380" y="637" as="sourcePoint" />
            <mxPoint x="340" y="637" as="targetPoint" />
          </mxGeometry>
        </mxCell>
        <mxCell id="-QNfoEiQIN1xO6m_8FKs-12" value="" style="rounded=0;orthogonalLoop=1;jettySize=auto;startArrow=blockThin;startFill=1;endArrow=none;endFill=0;strokeWidth=1;entryX=1;entryY=0.25;entryDx=0;entryDy=0;" parent="1" target="-QNfoEiQIN1xO6m_8FKs-7" edge="1">
          <mxGeometry relative="1" as="geometry">
            <mxPoint x="471.0000000000001" y="637" as="sourcePoint" />
            <mxPoint x="330" y="647.0775" as="targetPoint" />
          </mxGeometry>
        </mxCell>
        <mxCell id="-QNfoEiQIN1xO6m_8FKs-13" value="" style="edgeStyle=orthogonalEdgeStyle;rounded=0;orthogonalLoop=1;jettySize=auto;startArrow=none;startFill=0;endArrow=blockThin;endFill=1;strokeWidth=1;entryX=1;entryY=0.5;entryDx=0;entryDy=0;exitX=0;exitY=0.75;exitDx=0;exitDy=0;" parent="1" source="-QNfoEiQIN1xO6m_8FKs-10" target="-QNfoEiQIN1xO6m_8FKs-44" edge="1">
          <mxGeometry relative="1" as="geometry">
            <mxPoint x="606" y="666" as="sourcePoint" />
            <mxPoint x="454.2099999999998" y="647.0775000000001" as="targetPoint" />
            <Array as="points">
              <mxPoint x="574" y="661" />
              <mxPoint x="574" y="673" />
            </Array>
          </mxGeometry>
        </mxCell>
        <mxCell id="-QNfoEiQIN1xO6m_8FKs-14" value="" style="edgeStyle=orthogonalEdgeStyle;rounded=0;orthogonalLoop=1;jettySize=auto;startArrow=none;startFill=0;endArrow=none;endFill=0;strokeWidth=1;" parent="1" edge="1">
          <mxGeometry relative="1" as="geometry">
            <mxPoint x="532.0000000000001" y="636.9999999999999" as="sourcePoint" />
            <mxPoint x="470.0000000000001" y="636.9999999999999" as="targetPoint" />
          </mxGeometry>
        </mxCell>
        <mxCell id="-QNfoEiQIN1xO6m_8FKs-15" value="/topic_2" style="edgeLabel;align=center;verticalAlign=middle;resizable=0;points=[];fontSize=8;labelBackgroundColor=none;" parent="-QNfoEiQIN1xO6m_8FKs-14" vertex="1" connectable="0">
          <mxGeometry x="-0.195" y="2" relative="1" as="geometry">
            <mxPoint x="11" y="-8" as="offset" />
          </mxGeometry>
        </mxCell>
        <mxCell id="-QNfoEiQIN1xO6m_8FKs-16" value="" style="rounded=0;orthogonalLoop=1;jettySize=auto;startArrow=none;startFill=0;endArrow=none;endFill=0;strokeWidth=1;" parent="1" edge="1">
          <mxGeometry relative="1" as="geometry">
            <mxPoint x="532.0000000000001" y="617.9999999999999" as="sourcePoint" />
            <mxPoint x="490.0000000000001" y="618.49" as="targetPoint" />
          </mxGeometry>
        </mxCell>
        <mxCell id="-QNfoEiQIN1xO6m_8FKs-17" value="/topic_1" style="edgeLabel;align=center;verticalAlign=middle;resizable=0;points=[];fontSize=8;labelBackgroundColor=none;" parent="-QNfoEiQIN1xO6m_8FKs-16" vertex="1" connectable="0">
          <mxGeometry x="-0.195" y="2" relative="1" as="geometry">
            <mxPoint x="2.9400000000000004" y="-7.49" as="offset" />
          </mxGeometry>
        </mxCell>
        <mxCell id="-QNfoEiQIN1xO6m_8FKs-18" value="" style="rounded=0;orthogonalLoop=1;jettySize=auto;startArrow=none;startFill=0;endArrow=none;endFill=0;strokeWidth=1;entryX=-0.003;entryY=0.494;entryDx=0;entryDy=0;exitX=-0.001;exitY=0.569;exitDx=0;exitDy=0;entryPerimeter=0;exitPerimeter=0;" parent="1" source="-QNfoEiQIN1xO6m_8FKs-9" target="-QNfoEiQIN1xO6m_8FKs-8" edge="1">
          <mxGeometry relative="1" as="geometry">
            <mxPoint x="480.8399999999999" y="647.12" as="sourcePoint" />
            <mxPoint x="454.2099999999999" y="647.0775" as="targetPoint" />
          </mxGeometry>
        </mxCell>
        <mxCell id="-QNfoEiQIN1xO6m_8FKs-24" value="" style="edgeStyle=orthogonalEdgeStyle;rounded=0;orthogonalLoop=1;jettySize=auto;startArrow=none;startFill=0;endArrow=blockThin;endFill=1;strokeWidth=1;entryX=0.999;entryY=0.776;entryDx=0;entryDy=0;entryPerimeter=0;" parent="1" target="-QNfoEiQIN1xO6m_8FKs-7" edge="1">
          <mxGeometry relative="1" as="geometry">
            <mxPoint x="470.0000000000001" y="660" as="sourcePoint" />
            <mxPoint x="450" y="660" as="targetPoint" />
            <Array as="points">
              <mxPoint x="457" y="660" />
            </Array>
          </mxGeometry>
        </mxCell>
        <mxCell id="-QNfoEiQIN1xO6m_8FKs-25" value="" style="edgeStyle=orthogonalEdgeStyle;rounded=0;orthogonalLoop=1;jettySize=auto;startArrow=none;startFill=0;endArrow=blockThin;endFill=1;strokeWidth=1;entryX=0.998;entryY=0.637;entryDx=0;entryDy=0;entryPerimeter=0;exitX=0.003;exitY=0.771;exitDx=0;exitDy=0;exitPerimeter=0;" parent="1" source="-QNfoEiQIN1xO6m_8FKs-7" target="-QNfoEiQIN1xO6m_8FKs-2" edge="1">
          <mxGeometry relative="1" as="geometry">
            <mxPoint x="370" y="660" as="sourcePoint" />
            <mxPoint x="354.1457899999999" y="660.06896" as="targetPoint" />
            <Array as="points">
              <mxPoint x="367" y="660" />
            </Array>
          </mxGeometry>
        </mxCell>
        <mxCell id="-QNfoEiQIN1xO6m_8FKs-26" value="" style="edgeStyle=orthogonalEdgeStyle;rounded=0;orthogonalLoop=1;jettySize=auto;startArrow=none;startFill=0;endArrow=none;endFill=0;strokeWidth=1;" parent="1" edge="1">
          <mxGeometry relative="1" as="geometry">
            <mxPoint x="351.0000000000001" y="636.9999999999998" as="sourcePoint" />
            <mxPoint x="289.0000000000001" y="636.9999999999998" as="targetPoint" />
            <Array as="points">
              <mxPoint x="329" y="637" />
              <mxPoint x="329" y="637" />
            </Array>
          </mxGeometry>
        </mxCell>
        <mxCell id="-QNfoEiQIN1xO6m_8FKs-27" value="/Info_2" style="edgeLabel;align=center;verticalAlign=middle;resizable=0;points=[];fontSize=8;labelBackgroundColor=none;" parent="-QNfoEiQIN1xO6m_8FKs-26" vertex="1" connectable="0">
          <mxGeometry x="-0.195" y="2" relative="1" as="geometry">
            <mxPoint x="-25.03" y="-7" as="offset" />
          </mxGeometry>
        </mxCell>
        <mxCell id="-QNfoEiQIN1xO6m_8FKs-28" value="" style="rounded=0;orthogonalLoop=1;jettySize=auto;startArrow=none;startFill=0;endArrow=none;endFill=0;strokeWidth=1;entryX=-0.003;entryY=0.494;entryDx=0;entryDy=0;exitX=0.001;exitY=0.255;exitDx=0;exitDy=0;entryPerimeter=0;exitPerimeter=0;" parent="1" edge="1">
          <mxGeometry relative="1" as="geometry">
            <mxPoint x="350.65007" y="660.0024500000001" as="sourcePoint" />
            <mxPoint x="330.08000000000004" y="679.42512" as="targetPoint" />
          </mxGeometry>
        </mxCell>
        <mxCell id="-QNfoEiQIN1xO6m_8FKs-29" value="" style="rounded=0;orthogonalLoop=1;jettySize=auto;startArrow=none;startFill=0;endArrow=none;endFill=0;strokeWidth=1;exitX=0.001;exitY=0.255;exitDx=0;exitDy=0;exitPerimeter=0;entryX=0.992;entryY=0.237;entryDx=0;entryDy=0;entryPerimeter=0;" parent="1" target="-QNfoEiQIN1xO6m_8FKs-5" edge="1">
          <mxGeometry relative="1" as="geometry">
            <mxPoint x="350.1630000000001" y="636.5825499999999" as="sourcePoint" />
            <mxPoint x="329.52" y="616.06728" as="targetPoint" />
          </mxGeometry>
        </mxCell>
        <mxCell id="-QNfoEiQIN1xO6m_8FKs-30" value="" style="edgeStyle=orthogonalEdgeStyle;rounded=0;orthogonalLoop=1;jettySize=auto;startArrow=none;startFill=0;endArrow=none;endFill=0;strokeWidth=1;" parent="1" edge="1">
          <mxGeometry relative="1" as="geometry">
            <mxPoint x="309.0000000000001" y="617" as="sourcePoint" />
            <mxPoint x="289.0000000000001" y="616.9999999999998" as="targetPoint" />
            <Array as="points">
              <mxPoint x="330.08" y="617" />
              <mxPoint x="330.08" y="617" />
            </Array>
          </mxGeometry>
        </mxCell>
        <mxCell id="-QNfoEiQIN1xO6m_8FKs-31" value="/Info_1" style="edgeLabel;align=center;verticalAlign=middle;resizable=0;points=[];fontSize=8;labelBackgroundColor=none;" parent="-QNfoEiQIN1xO6m_8FKs-30" vertex="1" connectable="0">
          <mxGeometry x="-0.195" y="2" relative="1" as="geometry">
            <mxPoint x="-24.120000000000005" y="-7" as="offset" />
          </mxGeometry>
        </mxCell>
        <mxCell id="-QNfoEiQIN1xO6m_8FKs-32" value="" style="edgeStyle=orthogonalEdgeStyle;rounded=0;orthogonalLoop=1;jettySize=auto;startArrow=none;startFill=0;endArrow=none;endFill=0;strokeWidth=1;" parent="1" edge="1">
          <mxGeometry relative="1" as="geometry">
            <mxPoint x="350.0000000000001" y="659.9999999999998" as="sourcePoint" />
            <mxPoint x="288.0000000000001" y="659.9999999999998" as="targetPoint" />
            <Array as="points">
              <mxPoint x="328" y="660" />
              <mxPoint x="328" y="660" />
            </Array>
          </mxGeometry>
        </mxCell>
        <mxCell id="-QNfoEiQIN1xO6m_8FKs-33" value="/Info_3" style="edgeLabel;align=center;verticalAlign=middle;resizable=0;points=[];fontSize=8;labelBackgroundColor=none;" parent="-QNfoEiQIN1xO6m_8FKs-32" vertex="1" connectable="0">
          <mxGeometry x="-0.195" y="2" relative="1" as="geometry">
            <mxPoint x="-23.03" y="-7" as="offset" />
          </mxGeometry>
        </mxCell>
        <mxCell id="-QNfoEiQIN1xO6m_8FKs-34" value="" style="edgeStyle=orthogonalEdgeStyle;rounded=0;orthogonalLoop=1;jettySize=auto;startArrow=none;startFill=0;endArrow=none;endFill=0;strokeWidth=1;" parent="1" edge="1">
          <mxGeometry relative="1" as="geometry">
            <mxPoint x="309.0000000000001" y="679" as="sourcePoint" />
            <mxPoint x="289.0000000000001" y="678.9999999999998" as="targetPoint" />
            <Array as="points">
              <mxPoint x="330.08" y="679" />
              <mxPoint x="330.08" y="679" />
            </Array>
          </mxGeometry>
        </mxCell>
        <mxCell id="-QNfoEiQIN1xO6m_8FKs-35" value="/Info_4" style="edgeLabel;align=center;verticalAlign=middle;resizable=0;points=[];fontSize=8;labelBackgroundColor=none;" parent="-QNfoEiQIN1xO6m_8FKs-34" vertex="1" connectable="0">
          <mxGeometry x="-0.195" y="2" relative="1" as="geometry">
            <mxPoint x="-24.120000000000005" y="-7" as="offset" />
          </mxGeometry>
        </mxCell>
        <mxCell id="-QNfoEiQIN1xO6m_8FKs-36" value="Serialized&#xa;Data &#xa;Streams" style="text;resizable=0;autosize=1;align=center;verticalAlign=middle;points=[];fillColor=none;strokeColor=none;rounded=0;labelBackgroundColor=none;fontSize=9;" parent="1" vertex="1">
          <mxGeometry x="353.11000000000007" y="573.07" width="50" height="40" as="geometry" />
        </mxCell>
        <mxCell id="-QNfoEiQIN1xO6m_8FKs-37" value="" style="edgeStyle=orthogonalEdgeStyle;rounded=0;orthogonalLoop=1;jettySize=auto;startArrow=blockThin;startFill=1;endArrow=none;endFill=0;strokeWidth=1;entryX=0.005;entryY=0.502;entryDx=0;entryDy=0;entryPerimeter=0;" parent="1" target="-QNfoEiQIN1xO6m_8FKs-36" edge="1">
          <mxGeometry relative="1" as="geometry">
            <mxPoint x="337.0000000000001" y="620" as="sourcePoint" />
            <mxPoint x="547" y="668.505" as="targetPoint" />
            <Array as="points">
              <mxPoint x="337" y="620" />
              <mxPoint x="337" y="575" />
            </Array>
          </mxGeometry>
        </mxCell>
        <mxCell id="-QNfoEiQIN1xO6m_8FKs-38" value="" style="edgeStyle=orthogonalEdgeStyle;rounded=0;orthogonalLoop=1;jettySize=auto;startArrow=blockThin;startFill=1;endArrow=none;endFill=0;strokeWidth=1;entryX=0;entryY=0.5;entryDx=0;entryDy=0;" parent="1" target="-QNfoEiQIN1xO6m_8FKs-43" edge="1">
          <mxGeometry relative="1" as="geometry">
            <mxPoint x="338.11" y="674.54" as="sourcePoint" />
            <mxPoint x="350.11" y="704" as="targetPoint" />
            <Array as="points">
              <mxPoint x="338" y="703" />
              <mxPoint x="353" y="703" />
            </Array>
          </mxGeometry>
        </mxCell>
        <mxCell id="-QNfoEiQIN1xO6m_8FKs-39" value="Serialized&#xa;Data &#xa;Streams" style="text;resizable=0;autosize=1;align=center;verticalAlign=middle;points=[];fillColor=none;strokeColor=none;rounded=0;labelBackgroundColor=none;fontSize=9;" parent="1" vertex="1">
          <mxGeometry x="418.00000000000006" y="683.48" width="50" height="40" as="geometry" />
        </mxCell>
        <mxCell id="-QNfoEiQIN1xO6m_8FKs-41" value="" style="edgeStyle=orthogonalEdgeStyle;rounded=0;orthogonalLoop=1;jettySize=auto;startArrow=blockThin;startFill=1;endArrow=none;endFill=0;strokeWidth=1;entryX=1;entryY=0.5;entryDx=0;entryDy=0;" parent="1" target="-QNfoEiQIN1xO6m_8FKs-42" edge="1">
          <mxGeometry relative="1" as="geometry">
            <mxPoint x="480.0000000000001" y="623" as="sourcePoint" />
            <mxPoint x="468.7655" y="595.95" as="targetPoint" />
            <Array as="points">
              <mxPoint x="480" y="594" />
            </Array>
          </mxGeometry>
        </mxCell>
        <mxCell id="-QNfoEiQIN1xO6m_8FKs-42" value="Deserialized&#xa;Data&#xa;Streams" style="rounded=1;align=center;verticalAlign=middle;fontSize=9;fontStyle=0;fillColor=none;strokeColor=none;" parent="1" vertex="1">
          <mxGeometry x="411.79" y="573.6700000000001" width="54.21" height="38.79" as="geometry" />
        </mxCell>
        <mxCell id="-QNfoEiQIN1xO6m_8FKs-43" value="Deserialized&#xa;Data&#xa;Streams" style="rounded=1;align=center;verticalAlign=middle;fontSize=9;fontStyle=0;fillColor=none;strokeColor=none;" parent="1" vertex="1">
          <mxGeometry x="353.11" y="684.09" width="54.21" height="38.79" as="geometry" />
        </mxCell>
        <mxCell id="-QNfoEiQIN1xO6m_8FKs-44" value="Transmit" style="rounded=1;align=center;verticalAlign=bottom;fontSize=10;fontStyle=0;fillColor=#dae8fc;strokeColor=#6c8ebf;" parent="1" vertex="1">
          <mxGeometry x="489.93" y="646" width="70.866" height="52.99" as="geometry" />
        </mxCell>
        <mxCell id="-QNfoEiQIN1xO6m_8FKs-19" value="" style="edgeStyle=orthogonalEdgeStyle;rounded=0;orthogonalLoop=1;jettySize=auto;startArrow=none;startFill=0;endArrow=none;endFill=0;strokeWidth=1;" parent="1" edge="1">
          <mxGeometry relative="1" as="geometry">
            <mxPoint x="532.0000000000001" y="659.9999999999999" as="sourcePoint" />
            <mxPoint x="470.0000000000001" y="659.9999999999999" as="targetPoint" />
          </mxGeometry>
        </mxCell>
        <mxCell id="-QNfoEiQIN1xO6m_8FKs-20" value="/topic_3" style="edgeLabel;align=center;verticalAlign=middle;resizable=0;points=[];fontSize=8;labelBackgroundColor=none;" parent="-QNfoEiQIN1xO6m_8FKs-19" vertex="1" connectable="0">
          <mxGeometry x="-0.195" y="2" relative="1" as="geometry">
            <mxPoint x="11" y="-8" as="offset" />
          </mxGeometry>
        </mxCell>
        <mxCell id="-QNfoEiQIN1xO6m_8FKs-21" value="" style="rounded=0;orthogonalLoop=1;jettySize=auto;startArrow=none;startFill=0;endArrow=none;endFill=0;strokeWidth=1;" parent="1" edge="1">
          <mxGeometry relative="1" as="geometry">
            <mxPoint x="532.6300000000002" y="679.9999999999999" as="sourcePoint" />
            <mxPoint x="490.63" y="680.49" as="targetPoint" />
          </mxGeometry>
        </mxCell>
        <mxCell id="-QNfoEiQIN1xO6m_8FKs-22" value="/topic_4" style="edgeLabel;align=center;verticalAlign=middle;resizable=0;points=[];fontSize=8;labelBackgroundColor=none;" parent="-QNfoEiQIN1xO6m_8FKs-21" vertex="1" connectable="0">
          <mxGeometry x="-0.195" y="2" relative="1" as="geometry">
            <mxPoint x="2.9400000000000004" y="-7.49" as="offset" />
          </mxGeometry>
        </mxCell>
        <mxCell id="-QNfoEiQIN1xO6m_8FKs-23" value="" style="rounded=0;orthogonalLoop=1;jettySize=auto;startArrow=none;startFill=0;endArrow=none;endFill=0;strokeWidth=1;exitX=0.001;exitY=0.255;exitDx=0;exitDy=0;exitPerimeter=0;entryX=0;entryY=0.636;entryDx=0;entryDy=0;entryPerimeter=0;" parent="1" target="-QNfoEiQIN1xO6m_8FKs-8" edge="1">
          <mxGeometry relative="1" as="geometry">
            <mxPoint x="490.64300000000014" y="680.6725499999999" as="sourcePoint" />
            <mxPoint x="470" y="661" as="targetPoint" />
          </mxGeometry>
        </mxCell>
        <mxCell id="-QNfoEiQIN1xO6m_8FKs-40" value="" style="edgeStyle=orthogonalEdgeStyle;rounded=0;orthogonalLoop=1;jettySize=auto;startArrow=blockThin;startFill=1;endArrow=none;endFill=0;strokeWidth=1;entryX=1.004;entryY=0.5;entryDx=0;entryDy=0;entryPerimeter=0;" parent="1" target="-QNfoEiQIN1xO6m_8FKs-39" edge="1">
          <mxGeometry relative="1" as="geometry">
            <mxPoint x="481.0000000000001" y="676" as="sourcePoint" />
            <mxPoint x="651" y="740.375" as="targetPoint" />
            <Array as="points">
              <mxPoint x="481" y="703" />
              <mxPoint x="468" y="703" />
            </Array>
          </mxGeometry>
        </mxCell>
        <mxCell id="-QNfoEiQIN1xO6m_8FKs-45" value="" style="edgeStyle=orthogonalEdgeStyle;rounded=0;orthogonalLoop=1;jettySize=auto;startArrow=none;startFill=0;endArrow=blockThin;endFill=1;strokeWidth=1;exitX=1;exitY=0.5;exitDx=0;exitDy=0;entryX=0;entryY=0.25;entryDx=0;entryDy=0;" parent="1" source="-QNfoEiQIN1xO6m_8FKs-9" target="-QNfoEiQIN1xO6m_8FKs-10" edge="1">
          <mxGeometry relative="1" as="geometry">
            <mxPoint x="616.0999999999999" y="676.2225000000001" as="sourcePoint" />
            <mxPoint x="605" y="634" as="targetPoint" />
            <Array as="points">
              <mxPoint x="575" y="615" />
              <mxPoint x="575" y="626" />
            </Array>
          </mxGeometry>
        </mxCell>
        <mxCell id="-QNfoEiQIN1xO6m_8FKs-46" value="Receive" style="rounded=1;align=center;verticalAlign=top;fontSize=10;fontStyle=0;fillColor=#dae8fc;strokeColor=#6c8ebf;" parent="1" vertex="1">
          <mxGeometry x="472" y="840" width="68.17" height="42" as="geometry" />
        </mxCell>
        <mxCell id="-QNfoEiQIN1xO6m_8FKs-47" value="Transmit" style="rounded=1;align=center;verticalAlign=bottom;fontSize=10;fontStyle=0;fillColor=#dae8fc;strokeColor=#6c8ebf;" parent="1" vertex="1">
          <mxGeometry x="472" y="889" width="68" height="50" as="geometry" />
        </mxCell>
        <mxCell id="K6NKCnMjnbAVRSnIbpeF-46" value="" style="edgeStyle=orthogonalEdgeStyle;rounded=0;orthogonalLoop=1;jettySize=auto;startArrow=none;startFill=0;endArrow=none;endFill=0;strokeWidth=1;" parent="1" edge="1">
          <mxGeometry relative="1" as="geometry">
            <mxPoint x="535" y="877" as="sourcePoint" />
            <mxPoint x="463.89999999999975" y="877" as="targetPoint" />
          </mxGeometry>
        </mxCell>
        <mxCell id="K6NKCnMjnbAVRSnIbpeF-47" value="TrafficInf" style="edgeLabel;align=center;verticalAlign=middle;resizable=0;points=[];fontSize=8;labelBackgroundColor=none;" parent="K6NKCnMjnbAVRSnIbpeF-46" vertex="1" connectable="0">
          <mxGeometry x="-0.195" y="2" relative="1" as="geometry">
            <mxPoint x="12" y="-7" as="offset" />
          </mxGeometry>
        </mxCell>
        <mxCell id="K6NKCnMjnbAVRSnIbpeF-51" value="" style="edgeStyle=orthogonalEdgeStyle;rounded=0;orthogonalLoop=1;jettySize=auto;startArrow=none;startFill=0;endArrow=none;endFill=0;strokeWidth=1;" parent="1" edge="1">
          <mxGeometry relative="1" as="geometry">
            <mxPoint x="535" y="900" as="sourcePoint" />
            <mxPoint x="463.89999999999975" y="900" as="targetPoint" />
          </mxGeometry>
        </mxCell>
        <mxCell id="K6NKCnMjnbAVRSnIbpeF-52" value="EgoVehicleInf" style="edgeLabel;align=center;verticalAlign=middle;resizable=0;points=[];fontSize=8;labelBackgroundColor=none;" parent="K6NKCnMjnbAVRSnIbpeF-51" vertex="1" connectable="0">
          <mxGeometry x="-0.195" y="2" relative="1" as="geometry">
            <mxPoint x="4" y="-7" as="offset" />
          </mxGeometry>
        </mxCell>
        <mxCell id="FIuZF2IC0c6RJkiDbf_0-9" value="" style="edgeStyle=orthogonalEdgeStyle;rounded=0;orthogonalLoop=1;jettySize=auto;startArrow=none;startFill=0;endArrow=none;endFill=0;strokeWidth=1;fillColor=#dae8fc;strokeColor=#3333FF;" parent="1" edge="1">
          <mxGeometry relative="1" as="geometry">
            <mxPoint x="535.0999999999999" y="920" as="sourcePoint" />
            <mxPoint x="463.9999999999998" y="920" as="targetPoint" />
          </mxGeometry>
        </mxCell>
        <mxCell id="FIuZF2IC0c6RJkiDbf_0-10" value="DrivingInf" style="edgeLabel;align=center;verticalAlign=middle;resizable=0;points=[];fontSize=8;labelBackgroundColor=none;" parent="FIuZF2IC0c6RJkiDbf_0-9" vertex="1" connectable="0">
          <mxGeometry x="-0.195" y="2" relative="1" as="geometry">
            <mxPoint x="10" y="-7" as="offset" />
          </mxGeometry>
        </mxCell>
        <mxCell id="Bz3iHbRT_594y5GQNMD7-1" value="PostGRESQL: database server" style="rounded=1;align=center;verticalAlign=top;fontSize=11;fontStyle=0;strokeColor=#666666;fillColor=#f5f5f5;fontColor=#333333;glass=0;" vertex="1" parent="1">
          <mxGeometry x="150.11" y="190" width="200.16" height="157.48" as="geometry" />
        </mxCell>
        <mxCell id="Bz3iHbRT_594y5GQNMD7-2" value="" style="edgeStyle=orthogonalEdgeStyle;rounded=0;orthogonalLoop=1;jettySize=auto;endArrow=blockThin;endFill=1;startArrow=blockThin;startFill=1;" edge="1" parent="1" source="Bz3iHbRT_594y5GQNMD7-4" target="Bz3iHbRT_594y5GQNMD7-5">
          <mxGeometry relative="1" as="geometry" />
        </mxCell>
        <mxCell id="Bz3iHbRT_594y5GQNMD7-3" value="" style="edgeStyle=orthogonalEdgeStyle;rounded=0;orthogonalLoop=1;jettySize=auto;startArrow=blockThin;startFill=1;endArrow=blockThin;endFill=1;strokeWidth=1;" edge="1" parent="1" source="Bz3iHbRT_594y5GQNMD7-4" target="Bz3iHbRT_594y5GQNMD7-5">
          <mxGeometry relative="1" as="geometry" />
        </mxCell>
        <mxCell id="Bz3iHbRT_594y5GQNMD7-4" value="Cursor" style="rounded=1;align=center;verticalAlign=top;fontSize=10;fontStyle=0;fillColor=#dae8fc;strokeColor=#6c8ebf;" vertex="1" parent="1">
          <mxGeometry x="260.11" y="218.01" width="70.0786" height="122.83439999999999" as="geometry" />
        </mxCell>
        <mxCell id="Bz3iHbRT_594y5GQNMD7-5" value="" style="rounded=1;align=center;verticalAlign=middle;fontSize=10;fontStyle=0;fillColor=#FFFFFF;strokeColor=#d6b656;gradientColor=none;" vertex="1" parent="1">
          <mxGeometry x="160.11" y="243.06999999999994" width="70.08" height="70.866" as="geometry" />
        </mxCell>
        <mxCell id="Bz3iHbRT_594y5GQNMD7-6" value="Psycopg " style="rounded=1;align=center;verticalAlign=middle;fillColor=#d5e8d4;strokeColor=#82b366;fontSize=10;fontStyle=0;" vertex="1" parent="1">
          <mxGeometry x="378.11" y="256.15" width="64.21" height="43.71" as="geometry" />
        </mxCell>
        <mxCell id="Bz3iHbRT_594y5GQNMD7-7" value="ROS: middleware" style="rounded=1;align=center;verticalAlign=top;fontSize=11;fontStyle=0;strokeColor=#666666;fillColor=#f5f5f5;fontColor=#333333;glass=0;" vertex="1" parent="1">
          <mxGeometry x="470.11" y="190" width="200" height="157.48" as="geometry" />
        </mxCell>
        <mxCell id="Bz3iHbRT_594y5GQNMD7-8" value="Receive" style="rounded=1;align=center;verticalAlign=top;fontSize=10;fontStyle=0;fillColor=#dae8fc;strokeColor=#6c8ebf;" vertex="1" parent="1">
          <mxGeometry x="490.04" y="218.01" width="70.866" height="52.99" as="geometry" />
        </mxCell>
        <mxCell id="Bz3iHbRT_594y5GQNMD7-9" value="On-Vehicle &#xa;Simulation&#xa;Model or &#xa;Data Source" style="rounded=1;align=center;verticalAlign=middle;fontSize=10;fontStyle=0;fillColor=#fff2cc;strokeColor=#d6b656;gradientColor=#ffd966;" vertex="1" parent="1">
          <mxGeometry x="590.11" y="220" width="60" height="110" as="geometry" />
        </mxCell>
        <mxCell id="Bz3iHbRT_594y5GQNMD7-10" value="" style="rounded=0;orthogonalLoop=1;jettySize=auto;startArrow=blockThin;startFill=1;endArrow=none;endFill=0;strokeWidth=1;entryX=1.003;entryY=0.49;entryDx=0;entryDy=0;exitX=-0.012;exitY=0.247;exitDx=0;exitDy=0;exitPerimeter=0;entryPerimeter=0;" edge="1" parent="1" source="Bz3iHbRT_594y5GQNMD7-6" target="Bz3iHbRT_594y5GQNMD7-1">
          <mxGeometry relative="1" as="geometry">
            <mxPoint x="380.11" y="267" as="sourcePoint" />
            <mxPoint x="340.11" y="267" as="targetPoint" />
          </mxGeometry>
        </mxCell>
        <mxCell id="Bz3iHbRT_594y5GQNMD7-11" value="" style="rounded=0;orthogonalLoop=1;jettySize=auto;startArrow=blockThin;startFill=1;endArrow=none;endFill=0;strokeWidth=1;entryX=1;entryY=0.25;entryDx=0;entryDy=0;" edge="1" parent="1" target="Bz3iHbRT_594y5GQNMD7-6">
          <mxGeometry relative="1" as="geometry">
            <mxPoint x="471.11" y="267" as="sourcePoint" />
            <mxPoint x="330.11" y="277.0775" as="targetPoint" />
          </mxGeometry>
        </mxCell>
        <mxCell id="Bz3iHbRT_594y5GQNMD7-12" value="" style="edgeStyle=orthogonalEdgeStyle;rounded=0;orthogonalLoop=1;jettySize=auto;startArrow=none;startFill=0;endArrow=blockThin;endFill=1;strokeWidth=1;entryX=1;entryY=0.5;entryDx=0;entryDy=0;exitX=0;exitY=0.75;exitDx=0;exitDy=0;" edge="1" parent="1" source="Bz3iHbRT_594y5GQNMD7-9" target="Bz3iHbRT_594y5GQNMD7-37">
          <mxGeometry relative="1" as="geometry">
            <mxPoint x="606.11" y="296" as="sourcePoint" />
            <mxPoint x="454.3199999999998" y="277.0775000000001" as="targetPoint" />
            <Array as="points">
              <mxPoint x="580" y="302" />
              <mxPoint x="580" y="302" />
            </Array>
          </mxGeometry>
        </mxCell>
        <mxCell id="Bz3iHbRT_594y5GQNMD7-13" value="" style="edgeStyle=orthogonalEdgeStyle;rounded=0;orthogonalLoop=1;jettySize=auto;startArrow=none;startFill=0;endArrow=none;endFill=0;strokeWidth=1;" edge="1" parent="1">
          <mxGeometry relative="1" as="geometry">
            <mxPoint x="532.11" y="267" as="sourcePoint" />
            <mxPoint x="470.11" y="267" as="targetPoint" />
          </mxGeometry>
        </mxCell>
        <mxCell id="Bz3iHbRT_594y5GQNMD7-14" value="/topic_2" style="edgeLabel;align=center;verticalAlign=middle;resizable=0;points=[];fontSize=8;labelBackgroundColor=none;" vertex="1" connectable="0" parent="Bz3iHbRT_594y5GQNMD7-13">
          <mxGeometry x="-0.195" y="2" relative="1" as="geometry">
            <mxPoint x="11" y="-8" as="offset" />
          </mxGeometry>
        </mxCell>
        <mxCell id="Bz3iHbRT_594y5GQNMD7-15" value="" style="rounded=0;orthogonalLoop=1;jettySize=auto;startArrow=none;startFill=0;endArrow=none;endFill=0;strokeWidth=1;" edge="1" parent="1">
          <mxGeometry relative="1" as="geometry">
            <mxPoint x="532.11" y="248" as="sourcePoint" />
            <mxPoint x="490.11" y="248.49" as="targetPoint" />
          </mxGeometry>
        </mxCell>
        <mxCell id="Bz3iHbRT_594y5GQNMD7-16" value="/topic_1" style="edgeLabel;align=center;verticalAlign=middle;resizable=0;points=[];fontSize=8;labelBackgroundColor=none;" vertex="1" connectable="0" parent="Bz3iHbRT_594y5GQNMD7-15">
          <mxGeometry x="-0.195" y="2" relative="1" as="geometry">
            <mxPoint x="2.9400000000000004" y="-7.49" as="offset" />
          </mxGeometry>
        </mxCell>
        <mxCell id="Bz3iHbRT_594y5GQNMD7-17" value="" style="rounded=0;orthogonalLoop=1;jettySize=auto;startArrow=none;startFill=0;endArrow=none;endFill=0;strokeWidth=1;entryX=-0.003;entryY=0.494;entryDx=0;entryDy=0;exitX=-0.001;exitY=0.569;exitDx=0;exitDy=0;entryPerimeter=0;exitPerimeter=0;" edge="1" parent="1" source="Bz3iHbRT_594y5GQNMD7-8" target="Bz3iHbRT_594y5GQNMD7-7">
          <mxGeometry relative="1" as="geometry">
            <mxPoint x="480.94999999999993" y="277.12" as="sourcePoint" />
            <mxPoint x="454.31999999999994" y="277.0775" as="targetPoint" />
          </mxGeometry>
        </mxCell>
        <mxCell id="Bz3iHbRT_594y5GQNMD7-18" value="" style="edgeStyle=orthogonalEdgeStyle;rounded=0;orthogonalLoop=1;jettySize=auto;startArrow=none;startFill=0;endArrow=blockThin;endFill=1;strokeWidth=1;entryX=0.999;entryY=0.776;entryDx=0;entryDy=0;entryPerimeter=0;" edge="1" parent="1" target="Bz3iHbRT_594y5GQNMD7-6">
          <mxGeometry relative="1" as="geometry">
            <mxPoint x="470.11" y="290" as="sourcePoint" />
            <mxPoint x="450.11" y="290" as="targetPoint" />
            <Array as="points">
              <mxPoint x="457.11" y="290" />
            </Array>
          </mxGeometry>
        </mxCell>
        <mxCell id="Bz3iHbRT_594y5GQNMD7-19" value="" style="edgeStyle=orthogonalEdgeStyle;rounded=0;orthogonalLoop=1;jettySize=auto;startArrow=none;startFill=0;endArrow=blockThin;endFill=1;strokeWidth=1;entryX=0.998;entryY=0.637;entryDx=0;entryDy=0;entryPerimeter=0;exitX=0.003;exitY=0.771;exitDx=0;exitDy=0;exitPerimeter=0;" edge="1" parent="1" source="Bz3iHbRT_594y5GQNMD7-6" target="Bz3iHbRT_594y5GQNMD7-1">
          <mxGeometry relative="1" as="geometry">
            <mxPoint x="370.11" y="290" as="sourcePoint" />
            <mxPoint x="354.25578999999993" y="290.06895999999995" as="targetPoint" />
            <Array as="points">
              <mxPoint x="367.11" y="290" />
            </Array>
          </mxGeometry>
        </mxCell>
        <mxCell id="Bz3iHbRT_594y5GQNMD7-20" value="" style="edgeStyle=orthogonalEdgeStyle;rounded=0;orthogonalLoop=1;jettySize=auto;startArrow=none;startFill=0;endArrow=none;endFill=0;strokeWidth=1;" edge="1" parent="1">
          <mxGeometry relative="1" as="geometry">
            <mxPoint x="351.11" y="266.9999999999998" as="sourcePoint" />
            <mxPoint x="280" y="266.9999999999998" as="targetPoint" />
            <Array as="points">
              <mxPoint x="329.11" y="267" />
              <mxPoint x="329.11" y="267" />
            </Array>
          </mxGeometry>
        </mxCell>
        <mxCell id="Bz3iHbRT_594y5GQNMD7-21" value="/process_2" style="edgeLabel;align=center;verticalAlign=middle;resizable=0;points=[];fontSize=8;labelBackgroundColor=none;" vertex="1" connectable="0" parent="Bz3iHbRT_594y5GQNMD7-20">
          <mxGeometry x="-0.195" y="2" relative="1" as="geometry">
            <mxPoint x="-23" y="-8" as="offset" />
          </mxGeometry>
        </mxCell>
        <mxCell id="Bz3iHbRT_594y5GQNMD7-22" value="" style="rounded=0;orthogonalLoop=1;jettySize=auto;startArrow=none;startFill=0;endArrow=none;endFill=0;strokeWidth=1;entryX=-0.003;entryY=0.494;entryDx=0;entryDy=0;exitX=0.001;exitY=0.255;exitDx=0;exitDy=0;entryPerimeter=0;exitPerimeter=0;" edge="1" parent="1">
          <mxGeometry relative="1" as="geometry">
            <mxPoint x="350.76007000000016" y="290.00244999999995" as="sourcePoint" />
            <mxPoint x="330.18999999999994" y="309.4251199999999" as="targetPoint" />
          </mxGeometry>
        </mxCell>
        <mxCell id="Bz3iHbRT_594y5GQNMD7-23" value="" style="rounded=0;orthogonalLoop=1;jettySize=auto;startArrow=none;startFill=0;endArrow=none;endFill=0;strokeWidth=1;exitX=0.001;exitY=0.255;exitDx=0;exitDy=0;exitPerimeter=0;entryX=0.992;entryY=0.237;entryDx=0;entryDy=0;entryPerimeter=0;" edge="1" parent="1" target="Bz3iHbRT_594y5GQNMD7-4">
          <mxGeometry relative="1" as="geometry">
            <mxPoint x="350.273" y="266.58254999999986" as="sourcePoint" />
            <mxPoint x="329.63" y="246.06727999999998" as="targetPoint" />
          </mxGeometry>
        </mxCell>
        <mxCell id="Bz3iHbRT_594y5GQNMD7-24" value="" style="edgeStyle=orthogonalEdgeStyle;rounded=0;orthogonalLoop=1;jettySize=auto;startArrow=none;startFill=0;endArrow=none;endFill=0;strokeWidth=1;" edge="1" parent="1">
          <mxGeometry relative="1" as="geometry">
            <mxPoint x="309.11" y="247" as="sourcePoint" />
            <mxPoint x="280" y="246.99999999999977" as="targetPoint" />
            <Array as="points">
              <mxPoint x="330.19" y="247" />
              <mxPoint x="330.19" y="247" />
            </Array>
          </mxGeometry>
        </mxCell>
        <mxCell id="Bz3iHbRT_594y5GQNMD7-25" value="/process_1" style="edgeLabel;align=center;verticalAlign=middle;resizable=0;points=[];fontSize=8;labelBackgroundColor=none;" vertex="1" connectable="0" parent="Bz3iHbRT_594y5GQNMD7-24">
          <mxGeometry x="-0.195" y="2" relative="1" as="geometry">
            <mxPoint x="-23" y="-8" as="offset" />
          </mxGeometry>
        </mxCell>
        <mxCell id="Bz3iHbRT_594y5GQNMD7-26" value="" style="edgeStyle=orthogonalEdgeStyle;rounded=0;orthogonalLoop=1;jettySize=auto;startArrow=none;startFill=0;endArrow=none;endFill=0;strokeWidth=1;" edge="1" parent="1">
          <mxGeometry relative="1" as="geometry">
            <mxPoint x="350.11" y="289.9999999999998" as="sourcePoint" />
            <mxPoint x="280" y="289.9999999999998" as="targetPoint" />
            <Array as="points">
              <mxPoint x="328.11" y="290" />
              <mxPoint x="328.11" y="290" />
            </Array>
          </mxGeometry>
        </mxCell>
        <mxCell id="Bz3iHbRT_594y5GQNMD7-27" value="/process_3" style="edgeLabel;align=center;verticalAlign=middle;resizable=0;points=[];fontSize=8;labelBackgroundColor=none;" vertex="1" connectable="0" parent="Bz3iHbRT_594y5GQNMD7-26">
          <mxGeometry x="-0.195" y="2" relative="1" as="geometry">
            <mxPoint x="-22" y="-8" as="offset" />
          </mxGeometry>
        </mxCell>
        <mxCell id="Bz3iHbRT_594y5GQNMD7-28" value="" style="edgeStyle=orthogonalEdgeStyle;rounded=0;orthogonalLoop=1;jettySize=auto;startArrow=none;startFill=0;endArrow=none;endFill=0;strokeWidth=1;" edge="1" parent="1">
          <mxGeometry relative="1" as="geometry">
            <mxPoint x="309.11" y="309" as="sourcePoint" />
            <mxPoint x="280" y="308.9999999999998" as="targetPoint" />
            <Array as="points">
              <mxPoint x="330.19" y="309" />
              <mxPoint x="330.19" y="309" />
            </Array>
          </mxGeometry>
        </mxCell>
        <mxCell id="Bz3iHbRT_594y5GQNMD7-29" value="/process_4" style="edgeLabel;align=center;verticalAlign=middle;resizable=0;points=[];fontSize=8;labelBackgroundColor=none;" vertex="1" connectable="0" parent="Bz3iHbRT_594y5GQNMD7-28">
          <mxGeometry x="-0.195" y="2" relative="1" as="geometry">
            <mxPoint x="-23" y="-8" as="offset" />
          </mxGeometry>
        </mxCell>
        <mxCell id="Bz3iHbRT_594y5GQNMD7-30" value="Serialized&#xa;Data &#xa;Streams" style="text;resizable=0;autosize=1;align=center;verticalAlign=middle;points=[];fillColor=none;strokeColor=none;rounded=0;labelBackgroundColor=none;fontSize=9;" vertex="1" parent="1">
          <mxGeometry x="353.2200000000001" y="203.07000000000005" width="50" height="40" as="geometry" />
        </mxCell>
        <mxCell id="Bz3iHbRT_594y5GQNMD7-31" value="" style="edgeStyle=orthogonalEdgeStyle;rounded=0;orthogonalLoop=1;jettySize=auto;startArrow=blockThin;startFill=1;endArrow=none;endFill=0;strokeWidth=1;entryX=0.005;entryY=0.502;entryDx=0;entryDy=0;entryPerimeter=0;" edge="1" parent="1" target="Bz3iHbRT_594y5GQNMD7-30">
          <mxGeometry relative="1" as="geometry">
            <mxPoint x="337.11" y="250" as="sourcePoint" />
            <mxPoint x="547.11" y="298.505" as="targetPoint" />
            <Array as="points">
              <mxPoint x="337.11" y="250" />
              <mxPoint x="337.11" y="205" />
            </Array>
          </mxGeometry>
        </mxCell>
        <mxCell id="Bz3iHbRT_594y5GQNMD7-32" value="" style="edgeStyle=orthogonalEdgeStyle;rounded=0;orthogonalLoop=1;jettySize=auto;startArrow=blockThin;startFill=1;endArrow=none;endFill=0;strokeWidth=1;entryX=0;entryY=0.5;entryDx=0;entryDy=0;" edge="1" parent="1" target="Bz3iHbRT_594y5GQNMD7-36">
          <mxGeometry relative="1" as="geometry">
            <mxPoint x="338.22000000000014" y="304.53999999999996" as="sourcePoint" />
            <mxPoint x="350.22" y="334" as="targetPoint" />
            <Array as="points">
              <mxPoint x="338.11" y="333" />
              <mxPoint x="353.11" y="333" />
            </Array>
          </mxGeometry>
        </mxCell>
        <mxCell id="Bz3iHbRT_594y5GQNMD7-33" value="Serialized&#xa;Data &#xa;Streams" style="text;resizable=0;autosize=1;align=center;verticalAlign=middle;points=[];fillColor=none;strokeColor=none;rounded=0;labelBackgroundColor=none;fontSize=9;" vertex="1" parent="1">
          <mxGeometry x="418.11000000000007" y="313.48" width="50" height="40" as="geometry" />
        </mxCell>
        <mxCell id="Bz3iHbRT_594y5GQNMD7-34" value="" style="edgeStyle=orthogonalEdgeStyle;rounded=0;orthogonalLoop=1;jettySize=auto;startArrow=blockThin;startFill=1;endArrow=none;endFill=0;strokeWidth=1;entryX=1;entryY=0.5;entryDx=0;entryDy=0;" edge="1" parent="1" target="Bz3iHbRT_594y5GQNMD7-35">
          <mxGeometry relative="1" as="geometry">
            <mxPoint x="480.11" y="253" as="sourcePoint" />
            <mxPoint x="468.8755" y="225.95000000000005" as="targetPoint" />
            <Array as="points">
              <mxPoint x="480.11" y="224" />
            </Array>
          </mxGeometry>
        </mxCell>
        <mxCell id="Bz3iHbRT_594y5GQNMD7-35" value="Deserialized&#xa;Data&#xa;Streams" style="rounded=1;align=center;verticalAlign=middle;fontSize=9;fontStyle=0;fillColor=none;strokeColor=none;" vertex="1" parent="1">
          <mxGeometry x="411.90000000000003" y="203.67000000000007" width="54.21" height="38.79" as="geometry" />
        </mxCell>
        <mxCell id="Bz3iHbRT_594y5GQNMD7-36" value="Deserialized&#xa;Data&#xa;Streams" style="rounded=1;align=center;verticalAlign=middle;fontSize=9;fontStyle=0;fillColor=none;strokeColor=none;" vertex="1" parent="1">
          <mxGeometry x="353.22" y="314.09000000000003" width="54.21" height="38.79" as="geometry" />
        </mxCell>
        <mxCell id="Bz3iHbRT_594y5GQNMD7-37" value="Transmit" style="rounded=1;align=center;verticalAlign=bottom;fontSize=10;fontStyle=0;fillColor=#dae8fc;strokeColor=#6c8ebf;" vertex="1" parent="1">
          <mxGeometry x="490.04" y="276" width="70.866" height="52.99" as="geometry" />
        </mxCell>
        <mxCell id="Bz3iHbRT_594y5GQNMD7-38" value="" style="edgeStyle=orthogonalEdgeStyle;rounded=0;orthogonalLoop=1;jettySize=auto;startArrow=none;startFill=0;endArrow=none;endFill=0;strokeWidth=1;" edge="1" parent="1">
          <mxGeometry relative="1" as="geometry">
            <mxPoint x="532.11" y="290" as="sourcePoint" />
            <mxPoint x="470.11" y="290" as="targetPoint" />
          </mxGeometry>
        </mxCell>
        <mxCell id="Bz3iHbRT_594y5GQNMD7-39" value="/topic_3" style="edgeLabel;align=center;verticalAlign=middle;resizable=0;points=[];fontSize=8;labelBackgroundColor=none;" vertex="1" connectable="0" parent="Bz3iHbRT_594y5GQNMD7-38">
          <mxGeometry x="-0.195" y="2" relative="1" as="geometry">
            <mxPoint x="11" y="-8" as="offset" />
          </mxGeometry>
        </mxCell>
        <mxCell id="Bz3iHbRT_594y5GQNMD7-40" value="" style="rounded=0;orthogonalLoop=1;jettySize=auto;startArrow=none;startFill=0;endArrow=none;endFill=0;strokeWidth=1;" edge="1" parent="1">
          <mxGeometry relative="1" as="geometry">
            <mxPoint x="532.7400000000001" y="310" as="sourcePoint" />
            <mxPoint x="490.7400000000001" y="310.49" as="targetPoint" />
          </mxGeometry>
        </mxCell>
        <mxCell id="Bz3iHbRT_594y5GQNMD7-41" value="/topic_4" style="edgeLabel;align=center;verticalAlign=middle;resizable=0;points=[];fontSize=8;labelBackgroundColor=none;" vertex="1" connectable="0" parent="Bz3iHbRT_594y5GQNMD7-40">
          <mxGeometry x="-0.195" y="2" relative="1" as="geometry">
            <mxPoint x="2.9400000000000004" y="-7.49" as="offset" />
          </mxGeometry>
        </mxCell>
        <mxCell id="Bz3iHbRT_594y5GQNMD7-42" value="" style="rounded=0;orthogonalLoop=1;jettySize=auto;startArrow=none;startFill=0;endArrow=none;endFill=0;strokeWidth=1;exitX=0.001;exitY=0.255;exitDx=0;exitDy=0;exitPerimeter=0;entryX=0;entryY=0.636;entryDx=0;entryDy=0;entryPerimeter=0;" edge="1" parent="1" target="Bz3iHbRT_594y5GQNMD7-7">
          <mxGeometry relative="1" as="geometry">
            <mxPoint x="490.75300000000004" y="310.6725499999998" as="sourcePoint" />
            <mxPoint x="470.11" y="291" as="targetPoint" />
          </mxGeometry>
        </mxCell>
        <mxCell id="Bz3iHbRT_594y5GQNMD7-43" value="" style="edgeStyle=orthogonalEdgeStyle;rounded=0;orthogonalLoop=1;jettySize=auto;startArrow=blockThin;startFill=1;endArrow=none;endFill=0;strokeWidth=1;entryX=1.004;entryY=0.5;entryDx=0;entryDy=0;entryPerimeter=0;" edge="1" parent="1" target="Bz3iHbRT_594y5GQNMD7-33">
          <mxGeometry relative="1" as="geometry">
            <mxPoint x="481.11" y="306" as="sourcePoint" />
            <mxPoint x="651.11" y="370.375" as="targetPoint" />
            <Array as="points">
              <mxPoint x="481.11" y="333" />
              <mxPoint x="468.11" y="333" />
            </Array>
          </mxGeometry>
        </mxCell>
        <mxCell id="Bz3iHbRT_594y5GQNMD7-45" value="" style="edgeStyle=orthogonalEdgeStyle;rounded=0;orthogonalLoop=1;jettySize=auto;startArrow=none;startFill=0;endArrow=blockThin;endFill=1;strokeWidth=1;entryX=0;entryY=0.226;entryDx=0;entryDy=0;exitX=1;exitY=0.5;exitDx=0;exitDy=0;entryPerimeter=0;" edge="1" parent="1" source="Bz3iHbRT_594y5GQNMD7-8" target="Bz3iHbRT_594y5GQNMD7-9">
          <mxGeometry relative="1" as="geometry">
            <mxPoint x="600.11" y="312.5" as="sourcePoint" />
            <mxPoint x="570.906" y="312.495" as="targetPoint" />
            <Array as="points">
              <mxPoint x="590" y="245" />
            </Array>
          </mxGeometry>
        </mxCell>
        <mxCell id="Bz3iHbRT_594y5GQNMD7-46" value="" style="shape=image;verticalLabelPosition=bottom;verticalAlign=top;imageAspect=0;image=data:image/svg+xml,PHN2ZyB4bWxucz0iaHR0cDovL3d3dy53My5vcmcvMjAwMC9zdmciIHhtbG5zOnhsaW5rPSJodHRwOi8vd3d3LnczLm9yZy8xOTk5L3hsaW5rIiB2aWV3Qm94PSIyMCAxMCA1NiA3NiIgaWQ9Ikljb25zX0RhdGFiYXNlIiBvdmVyZmxvdz0iaGlkZGVuIiB3aWR0aD0iNTYiIGhlaWdodD0iNzYiPjxzdHlsZT4mI3hhOy5Nc2Z0T2ZjUmVzcG9uc2l2ZV9GaWxsXzAwNzBjMCB7JiN4YTsgZmlsbDojMDA3MEMwOyAmI3hhO30mI3hhOzwvc3R5bGU+JiN4YTs8Zz48ZWxsaXBzZSBjeD0iNDgiIGN5PSIxOCIgcng9IjI4IiByeT0iOCIgY2xhc3M9Ik1zZnRPZmNSZXNwb25zaXZlX0ZpbGxfMDA3MGMwIiBmaWxsPSIjMDA3MEMwIi8+PHBhdGggZD0iTTY4IDM4QzY2LjggMzggNjYgMzcuMiA2NiAzNiA2NiAzNC44IDY2LjggMzQgNjggMzQgNjkuMiAzNCA3MCAzNC44IDcwIDM2IDcwIDM3LjIgNjkuMiAzOCA2OCAzOFpNNDggMzBDMzIuNiAzMCAyMCAyNi40IDIwIDIyTDIwIDM4QzIwIDQyLjQgMzIuNiA0NiA0OCA0NiA2My40IDQ2IDc2IDQyLjQgNzYgMzhMNzYgMjJDNzYgMjYuNCA2My40IDMwIDQ4IDMwWiIgY2xhc3M9Ik1zZnRPZmNSZXNwb25zaXZlX0ZpbGxfMDA3MGMwIiBmaWxsPSIjMDA3MEMwIi8+PHBhdGggZD0iTTY4IDU4QzY2LjggNTggNjYgNTcuMiA2NiA1NiA2NiA1NC44IDY2LjggNTQgNjggNTQgNjkuMiA1NCA3MCA1NC44IDcwIDU2IDcwIDU3LjIgNjkuMiA1OCA2OCA1OFpNNDggNTBDMzIuNiA1MCAyMCA0Ni40IDIwIDQyTDIwIDU4QzIwIDYyLjQgMzIuNiA2NiA0OCA2NiA2My40IDY2IDc2IDYyLjQgNzYgNThMNzYgNDJDNzYgNDYuNCA2My40IDUwIDQ4IDUwWiIgY2xhc3M9Ik1zZnRPZmNSZXNwb25zaXZlX0ZpbGxfMDA3MGMwIiBmaWxsPSIjMDA3MEMwIi8+PHBhdGggZD0iTTY4IDc4QzY2LjggNzggNjYgNzcuMiA2NiA3NiA2NiA3NC44IDY2LjggNzQgNjggNzQgNjkuMiA3NCA3MCA3NC44IDcwIDc2IDcwIDc3LjIgNjkuMiA3OCA2OCA3OFpNNDggNzBDMzIuNiA3MCAyMCA2Ni40IDIwIDYyTDIwIDc4QzIwIDgyLjQgMzIuNiA4NiA0OCA4NiA2My40IDg2IDc2IDgyLjQgNzYgNzhMNzYgNjJDNzYgNjYuNCA2My40IDcwIDQ4IDcwWiIgY2xhc3M9Ik1zZnRPZmNSZXNwb25zaXZlX0ZpbGxfMDA3MGMwIiBmaWxsPSIjMDA3MEMwIi8+PC9nPjwvc3ZnPg==" vertex="1" parent="1">
          <mxGeometry x="170.15" y="250.01000000000002" width="50" height="56" as="geometry" />
        </mxCell>
      </root>
    </mxGraphModel>
  </diagram>
  <diagram id="0cfiP9lgbRmooCwSaKp9" name="old">
    <mxGraphModel dx="1364" dy="690" grid="1" gridSize="10" guides="1" tooltips="1" connect="1" arrows="1" fold="1" page="1" pageScale="1" pageWidth="850" pageHeight="1100" math="0" shadow="0">
      <root>
        <mxCell id="zubyIa7aWpSav51OET3G-0" />
        <mxCell id="zubyIa7aWpSav51OET3G-1" parent="zubyIa7aWpSav51OET3G-0" />
        <mxCell id="Yq877jy8nlQ7mpjoUAYc-0" value="AIMSUN: traffic simulator" style="rounded=1;align=center;verticalAlign=top;fontSize=11;fontStyle=0;strokeColor=#666666;fillColor=#f5f5f5;fontColor=#333333;glass=0;" parent="zubyIa7aWpSav51OET3G-1" vertex="1">
          <mxGeometry x="200" y="380" width="200.16" height="157.48" as="geometry" />
        </mxCell>
        <mxCell id="Yq877jy8nlQ7mpjoUAYc-1" value="" style="edgeStyle=orthogonalEdgeStyle;rounded=0;orthogonalLoop=1;jettySize=auto;endArrow=blockThin;endFill=1;startArrow=blockThin;startFill=1;" parent="zubyIa7aWpSav51OET3G-1" source="Yq877jy8nlQ7mpjoUAYc-3" target="Yq877jy8nlQ7mpjoUAYc-4" edge="1">
          <mxGeometry relative="1" as="geometry" />
        </mxCell>
        <mxCell id="Yq877jy8nlQ7mpjoUAYc-2" value="" style="edgeStyle=orthogonalEdgeStyle;rounded=0;orthogonalLoop=1;jettySize=auto;startArrow=blockThin;startFill=1;endArrow=blockThin;endFill=1;strokeWidth=1;" parent="zubyIa7aWpSav51OET3G-1" source="Yq877jy8nlQ7mpjoUAYc-3" target="Yq877jy8nlQ7mpjoUAYc-4" edge="1">
          <mxGeometry relative="1" as="geometry" />
        </mxCell>
        <mxCell id="Yq877jy8nlQ7mpjoUAYc-3" value="API Module" style="rounded=1;align=center;verticalAlign=top;fontSize=10;fontStyle=0;fillColor=#dae8fc;strokeColor=#6c8ebf;" parent="zubyIa7aWpSav51OET3G-1" vertex="1">
          <mxGeometry x="310" y="408.01" width="70.0786" height="122.83439999999999" as="geometry" />
        </mxCell>
        <mxCell id="Yq877jy8nlQ7mpjoUAYc-4" value="Traffic&#xa;Simulation&#xa;Model" style="rounded=1;align=center;verticalAlign=middle;fontSize=10;fontStyle=0;fillColor=#fff2cc;strokeColor=#d6b656;gradientColor=#ffd966;" parent="zubyIa7aWpSav51OET3G-1" vertex="1">
          <mxGeometry x="210" y="433.06999999999994" width="70.08" height="70.866" as="geometry" />
        </mxCell>
        <mxCell id="Yq877jy8nlQ7mpjoUAYc-5" value="UDP Socket" style="rounded=1;align=center;verticalAlign=middle;fillColor=#d5e8d4;strokeColor=#82b366;fontSize=10;fontStyle=0;" parent="zubyIa7aWpSav51OET3G-1" vertex="1">
          <mxGeometry x="428" y="446.15" width="64.21" height="43.71" as="geometry" />
        </mxCell>
        <mxCell id="Yq877jy8nlQ7mpjoUAYc-6" value="ROS: external vehicle motion" style="rounded=1;align=center;verticalAlign=top;fontSize=11;fontStyle=0;strokeColor=#666666;fillColor=#f5f5f5;fontColor=#333333;glass=0;" parent="zubyIa7aWpSav51OET3G-1" vertex="1">
          <mxGeometry x="520" y="380" width="206.1" height="157.48" as="geometry" />
        </mxCell>
        <mxCell id="Yq877jy8nlQ7mpjoUAYc-7" value="Communication" style="rounded=1;align=center;verticalAlign=top;fontSize=10;fontStyle=0;fillColor=#dae8fc;strokeColor=#6c8ebf;" parent="zubyIa7aWpSav51OET3G-1" vertex="1">
          <mxGeometry x="539.9300000000001" y="407.01" width="86.17" height="122.99" as="geometry" />
        </mxCell>
        <mxCell id="Yq877jy8nlQ7mpjoUAYc-8" value="Ego-Vehicle&#xa;Feeddback&#xa;Loop" style="rounded=1;align=center;verticalAlign=middle;fontSize=10;fontStyle=0;fillColor=#fff2cc;strokeColor=#d6b656;gradientColor=#ffd966;" parent="zubyIa7aWpSav51OET3G-1" vertex="1">
          <mxGeometry x="656.0999999999999" y="433.06999999999994" width="60" height="70.87" as="geometry" />
        </mxCell>
        <mxCell id="Yq877jy8nlQ7mpjoUAYc-9" value="" style="rounded=0;orthogonalLoop=1;jettySize=auto;startArrow=blockThin;startFill=1;endArrow=none;endFill=0;strokeWidth=1;entryX=1.003;entryY=0.49;entryDx=0;entryDy=0;exitX=-0.012;exitY=0.247;exitDx=0;exitDy=0;exitPerimeter=0;entryPerimeter=0;" parent="zubyIa7aWpSav51OET3G-1" source="Yq877jy8nlQ7mpjoUAYc-5" target="Yq877jy8nlQ7mpjoUAYc-0" edge="1">
          <mxGeometry relative="1" as="geometry">
            <mxPoint x="430" y="457" as="sourcePoint" />
            <mxPoint x="390" y="457" as="targetPoint" />
          </mxGeometry>
        </mxCell>
        <mxCell id="Yq877jy8nlQ7mpjoUAYc-10" value="" style="rounded=0;orthogonalLoop=1;jettySize=auto;startArrow=blockThin;startFill=1;endArrow=none;endFill=0;strokeWidth=1;entryX=1;entryY=0.25;entryDx=0;entryDy=0;" parent="zubyIa7aWpSav51OET3G-1" target="Yq877jy8nlQ7mpjoUAYc-5" edge="1">
          <mxGeometry relative="1" as="geometry">
            <mxPoint x="521" y="457" as="sourcePoint" />
            <mxPoint x="380" y="467.0774999999999" as="targetPoint" />
          </mxGeometry>
        </mxCell>
        <mxCell id="Yq877jy8nlQ7mpjoUAYc-11" value="" style="edgeStyle=orthogonalEdgeStyle;rounded=0;orthogonalLoop=1;jettySize=auto;startArrow=blockThin;startFill=1;endArrow=blockThin;endFill=1;strokeWidth=1;entryX=1;entryY=0.5;entryDx=0;entryDy=0;" parent="zubyIa7aWpSav51OET3G-1" source="Yq877jy8nlQ7mpjoUAYc-8" target="Yq877jy8nlQ7mpjoUAYc-7" edge="1">
          <mxGeometry relative="1" as="geometry">
            <mxPoint x="546.1800000000001" y="466.55999999999995" as="sourcePoint" />
            <mxPoint x="504.2099999999998" y="467.0775000000001" as="targetPoint" />
          </mxGeometry>
        </mxCell>
        <mxCell id="Yq877jy8nlQ7mpjoUAYc-12" value="" style="edgeStyle=orthogonalEdgeStyle;rounded=0;orthogonalLoop=1;jettySize=auto;startArrow=none;startFill=0;endArrow=none;endFill=0;strokeWidth=1;" parent="zubyIa7aWpSav51OET3G-1" edge="1">
          <mxGeometry relative="1" as="geometry">
            <mxPoint x="582" y="457" as="sourcePoint" />
            <mxPoint x="520" y="457" as="targetPoint" />
          </mxGeometry>
        </mxCell>
        <mxCell id="Yq877jy8nlQ7mpjoUAYc-13" value="/topic_2" style="edgeLabel;align=center;verticalAlign=middle;resizable=0;points=[];fontSize=8;labelBackgroundColor=none;" parent="Yq877jy8nlQ7mpjoUAYc-12" vertex="1" connectable="0">
          <mxGeometry x="-0.195" y="2" relative="1" as="geometry">
            <mxPoint x="11" y="-10" as="offset" />
          </mxGeometry>
        </mxCell>
        <mxCell id="Yq877jy8nlQ7mpjoUAYc-14" value="" style="rounded=0;orthogonalLoop=1;jettySize=auto;startArrow=none;startFill=0;endArrow=none;endFill=0;strokeWidth=1;" parent="zubyIa7aWpSav51OET3G-1" edge="1">
          <mxGeometry relative="1" as="geometry">
            <mxPoint x="582" y="438" as="sourcePoint" />
            <mxPoint x="540" y="438.49" as="targetPoint" />
          </mxGeometry>
        </mxCell>
        <mxCell id="Yq877jy8nlQ7mpjoUAYc-15" value="/topic_1" style="edgeLabel;align=center;verticalAlign=middle;resizable=0;points=[];fontSize=8;labelBackgroundColor=none;" parent="Yq877jy8nlQ7mpjoUAYc-14" vertex="1" connectable="0">
          <mxGeometry x="-0.195" y="2" relative="1" as="geometry">
            <mxPoint x="2.9400000000000004" y="-8.49" as="offset" />
          </mxGeometry>
        </mxCell>
        <mxCell id="Yq877jy8nlQ7mpjoUAYc-16" value="" style="rounded=0;orthogonalLoop=1;jettySize=auto;startArrow=none;startFill=0;endArrow=none;endFill=0;strokeWidth=1;entryX=-0.003;entryY=0.494;entryDx=0;entryDy=0;exitX=0.001;exitY=0.255;exitDx=0;exitDy=0;entryPerimeter=0;exitPerimeter=0;" parent="zubyIa7aWpSav51OET3G-1" source="Yq877jy8nlQ7mpjoUAYc-7" target="Yq877jy8nlQ7mpjoUAYc-6" edge="1">
          <mxGeometry relative="1" as="geometry">
            <mxPoint x="530.8399999999999" y="467.1199999999999" as="sourcePoint" />
            <mxPoint x="504.2099999999999" y="467.0774999999999" as="targetPoint" />
          </mxGeometry>
        </mxCell>
        <mxCell id="Yq877jy8nlQ7mpjoUAYc-17" value="" style="edgeStyle=orthogonalEdgeStyle;rounded=0;orthogonalLoop=1;jettySize=auto;startArrow=none;startFill=0;endArrow=none;endFill=0;strokeWidth=1;" parent="zubyIa7aWpSav51OET3G-1" edge="1">
          <mxGeometry relative="1" as="geometry">
            <mxPoint x="582" y="480" as="sourcePoint" />
            <mxPoint x="520" y="480" as="targetPoint" />
          </mxGeometry>
        </mxCell>
        <mxCell id="Yq877jy8nlQ7mpjoUAYc-18" value="/topic_3" style="edgeLabel;align=center;verticalAlign=middle;resizable=0;points=[];fontSize=8;labelBackgroundColor=none;" parent="Yq877jy8nlQ7mpjoUAYc-17" vertex="1" connectable="0">
          <mxGeometry x="-0.195" y="2" relative="1" as="geometry">
            <mxPoint x="11" y="-10" as="offset" />
          </mxGeometry>
        </mxCell>
        <mxCell id="Yq877jy8nlQ7mpjoUAYc-19" value="" style="rounded=0;orthogonalLoop=1;jettySize=auto;startArrow=none;startFill=0;endArrow=none;endFill=0;strokeWidth=1;" parent="zubyIa7aWpSav51OET3G-1" edge="1">
          <mxGeometry relative="1" as="geometry">
            <mxPoint x="582.6300000000001" y="500" as="sourcePoint" />
            <mxPoint x="540.6300000000001" y="500.49" as="targetPoint" />
          </mxGeometry>
        </mxCell>
        <mxCell id="Yq877jy8nlQ7mpjoUAYc-20" value="/topic_4" style="edgeLabel;align=center;verticalAlign=middle;resizable=0;points=[];fontSize=8;labelBackgroundColor=none;" parent="Yq877jy8nlQ7mpjoUAYc-19" vertex="1" connectable="0">
          <mxGeometry x="-0.195" y="2" relative="1" as="geometry">
            <mxPoint x="2.9400000000000004" y="-8.49" as="offset" />
          </mxGeometry>
        </mxCell>
        <mxCell id="Yq877jy8nlQ7mpjoUAYc-21" value="" style="rounded=0;orthogonalLoop=1;jettySize=auto;startArrow=none;startFill=0;endArrow=none;endFill=0;strokeWidth=1;exitX=0.001;exitY=0.255;exitDx=0;exitDy=0;exitPerimeter=0;entryX=0;entryY=0.636;entryDx=0;entryDy=0;entryPerimeter=0;" parent="zubyIa7aWpSav51OET3G-1" target="Yq877jy8nlQ7mpjoUAYc-6" edge="1">
          <mxGeometry relative="1" as="geometry">
            <mxPoint x="540.643" y="500.6725499999998" as="sourcePoint" />
            <mxPoint x="520" y="481" as="targetPoint" />
          </mxGeometry>
        </mxCell>
        <mxCell id="Yq877jy8nlQ7mpjoUAYc-22" value="" style="edgeStyle=orthogonalEdgeStyle;rounded=0;orthogonalLoop=1;jettySize=auto;startArrow=none;startFill=0;endArrow=blockThin;endFill=1;strokeWidth=1;entryX=0.999;entryY=0.776;entryDx=0;entryDy=0;entryPerimeter=0;" parent="zubyIa7aWpSav51OET3G-1" target="Yq877jy8nlQ7mpjoUAYc-5" edge="1">
          <mxGeometry relative="1" as="geometry">
            <mxPoint x="520" y="480" as="sourcePoint" />
            <mxPoint x="500" y="480" as="targetPoint" />
            <Array as="points">
              <mxPoint x="507" y="480" />
            </Array>
          </mxGeometry>
        </mxCell>
        <mxCell id="Yq877jy8nlQ7mpjoUAYc-23" value="" style="edgeStyle=orthogonalEdgeStyle;rounded=0;orthogonalLoop=1;jettySize=auto;startArrow=none;startFill=0;endArrow=blockThin;endFill=1;strokeWidth=1;entryX=0.998;entryY=0.637;entryDx=0;entryDy=0;entryPerimeter=0;exitX=0.003;exitY=0.771;exitDx=0;exitDy=0;exitPerimeter=0;" parent="zubyIa7aWpSav51OET3G-1" source="Yq877jy8nlQ7mpjoUAYc-5" target="Yq877jy8nlQ7mpjoUAYc-0" edge="1">
          <mxGeometry relative="1" as="geometry">
            <mxPoint x="420" y="480" as="sourcePoint" />
            <mxPoint x="404.1457899999999" y="480.06896000000006" as="targetPoint" />
            <Array as="points">
              <mxPoint x="417" y="480" />
            </Array>
          </mxGeometry>
        </mxCell>
        <mxCell id="Yq877jy8nlQ7mpjoUAYc-24" value="" style="edgeStyle=orthogonalEdgeStyle;rounded=0;orthogonalLoop=1;jettySize=auto;startArrow=none;startFill=0;endArrow=none;endFill=0;strokeWidth=1;" parent="zubyIa7aWpSav51OET3G-1" edge="1">
          <mxGeometry relative="1" as="geometry">
            <mxPoint x="401" y="456.9999999999998" as="sourcePoint" />
            <mxPoint x="339" y="456.9999999999998" as="targetPoint" />
            <Array as="points">
              <mxPoint x="379" y="457" />
              <mxPoint x="379" y="457" />
            </Array>
          </mxGeometry>
        </mxCell>
        <mxCell id="Yq877jy8nlQ7mpjoUAYc-25" value="/Info_2" style="edgeLabel;align=center;verticalAlign=middle;resizable=0;points=[];fontSize=8;labelBackgroundColor=none;" parent="Yq877jy8nlQ7mpjoUAYc-24" vertex="1" connectable="0">
          <mxGeometry x="-0.195" y="2" relative="1" as="geometry">
            <mxPoint x="-25.03" y="-7" as="offset" />
          </mxGeometry>
        </mxCell>
        <mxCell id="Yq877jy8nlQ7mpjoUAYc-26" value="" style="rounded=0;orthogonalLoop=1;jettySize=auto;startArrow=none;startFill=0;endArrow=none;endFill=0;strokeWidth=1;entryX=-0.003;entryY=0.494;entryDx=0;entryDy=0;exitX=0.001;exitY=0.255;exitDx=0;exitDy=0;entryPerimeter=0;exitPerimeter=0;" parent="zubyIa7aWpSav51OET3G-1" edge="1">
          <mxGeometry relative="1" as="geometry">
            <mxPoint x="400.65007000000014" y="480.00244999999995" as="sourcePoint" />
            <mxPoint x="380.0799999999999" y="499.4251199999999" as="targetPoint" />
          </mxGeometry>
        </mxCell>
        <mxCell id="Yq877jy8nlQ7mpjoUAYc-27" value="" style="rounded=0;orthogonalLoop=1;jettySize=auto;startArrow=none;startFill=0;endArrow=none;endFill=0;strokeWidth=1;exitX=0.001;exitY=0.255;exitDx=0;exitDy=0;exitPerimeter=0;entryX=0.992;entryY=0.237;entryDx=0;entryDy=0;entryPerimeter=0;" parent="zubyIa7aWpSav51OET3G-1" target="Yq877jy8nlQ7mpjoUAYc-3" edge="1">
          <mxGeometry relative="1" as="geometry">
            <mxPoint x="400.163" y="456.58254999999986" as="sourcePoint" />
            <mxPoint x="379.52" y="436.06728" as="targetPoint" />
          </mxGeometry>
        </mxCell>
        <mxCell id="Yq877jy8nlQ7mpjoUAYc-28" value="" style="edgeStyle=orthogonalEdgeStyle;rounded=0;orthogonalLoop=1;jettySize=auto;startArrow=none;startFill=0;endArrow=none;endFill=0;strokeWidth=1;" parent="zubyIa7aWpSav51OET3G-1" edge="1">
          <mxGeometry relative="1" as="geometry">
            <mxPoint x="359" y="437" as="sourcePoint" />
            <mxPoint x="339" y="436.9999999999998" as="targetPoint" />
            <Array as="points">
              <mxPoint x="380.08" y="437" />
              <mxPoint x="380.08" y="437" />
            </Array>
          </mxGeometry>
        </mxCell>
        <mxCell id="Yq877jy8nlQ7mpjoUAYc-29" value="/Info_1" style="edgeLabel;align=center;verticalAlign=middle;resizable=0;points=[];fontSize=8;labelBackgroundColor=none;" parent="Yq877jy8nlQ7mpjoUAYc-28" vertex="1" connectable="0">
          <mxGeometry x="-0.195" y="2" relative="1" as="geometry">
            <mxPoint x="-24.120000000000005" y="-7" as="offset" />
          </mxGeometry>
        </mxCell>
        <mxCell id="Yq877jy8nlQ7mpjoUAYc-30" value="" style="edgeStyle=orthogonalEdgeStyle;rounded=0;orthogonalLoop=1;jettySize=auto;startArrow=none;startFill=0;endArrow=none;endFill=0;strokeWidth=1;" parent="zubyIa7aWpSav51OET3G-1" edge="1">
          <mxGeometry relative="1" as="geometry">
            <mxPoint x="400" y="479.9999999999998" as="sourcePoint" />
            <mxPoint x="338" y="479.9999999999998" as="targetPoint" />
            <Array as="points">
              <mxPoint x="378" y="480" />
              <mxPoint x="378" y="480" />
            </Array>
          </mxGeometry>
        </mxCell>
        <mxCell id="Yq877jy8nlQ7mpjoUAYc-31" value="/Info_3" style="edgeLabel;align=center;verticalAlign=middle;resizable=0;points=[];fontSize=8;labelBackgroundColor=none;" parent="Yq877jy8nlQ7mpjoUAYc-30" vertex="1" connectable="0">
          <mxGeometry x="-0.195" y="2" relative="1" as="geometry">
            <mxPoint x="-23.03" y="-7" as="offset" />
          </mxGeometry>
        </mxCell>
        <mxCell id="Yq877jy8nlQ7mpjoUAYc-32" value="" style="edgeStyle=orthogonalEdgeStyle;rounded=0;orthogonalLoop=1;jettySize=auto;startArrow=none;startFill=0;endArrow=none;endFill=0;strokeWidth=1;" parent="zubyIa7aWpSav51OET3G-1" edge="1">
          <mxGeometry relative="1" as="geometry">
            <mxPoint x="359" y="499" as="sourcePoint" />
            <mxPoint x="339" y="498.9999999999998" as="targetPoint" />
            <Array as="points">
              <mxPoint x="380.08" y="499" />
              <mxPoint x="380.08" y="499" />
            </Array>
          </mxGeometry>
        </mxCell>
        <mxCell id="Yq877jy8nlQ7mpjoUAYc-33" value="/Info_4" style="edgeLabel;align=center;verticalAlign=middle;resizable=0;points=[];fontSize=8;labelBackgroundColor=none;" parent="Yq877jy8nlQ7mpjoUAYc-32" vertex="1" connectable="0">
          <mxGeometry x="-0.195" y="2" relative="1" as="geometry">
            <mxPoint x="-24.120000000000005" y="-7" as="offset" />
          </mxGeometry>
        </mxCell>
        <mxCell id="Yq877jy8nlQ7mpjoUAYc-34" value="Serialized&#xa;Data &#xa;Streams" style="text;resizable=0;autosize=1;align=center;verticalAlign=middle;points=[];fillColor=none;strokeColor=none;rounded=0;labelBackgroundColor=none;fontSize=9;" parent="zubyIa7aWpSav51OET3G-1" vertex="1">
          <mxGeometry x="403.11000000000007" y="393.07000000000005" width="50" height="40" as="geometry" />
        </mxCell>
        <mxCell id="Yq877jy8nlQ7mpjoUAYc-35" value="" style="edgeStyle=orthogonalEdgeStyle;rounded=0;orthogonalLoop=1;jettySize=auto;startArrow=blockThin;startFill=1;endArrow=none;endFill=0;strokeWidth=1;entryX=0.005;entryY=0.502;entryDx=0;entryDy=0;entryPerimeter=0;" parent="zubyIa7aWpSav51OET3G-1" target="Yq877jy8nlQ7mpjoUAYc-34" edge="1">
          <mxGeometry relative="1" as="geometry">
            <mxPoint x="387" y="440" as="sourcePoint" />
            <mxPoint x="596.9999999999999" y="488.5050000000001" as="targetPoint" />
            <Array as="points">
              <mxPoint x="387" y="440" />
              <mxPoint x="387" y="395" />
            </Array>
          </mxGeometry>
        </mxCell>
        <mxCell id="Yq877jy8nlQ7mpjoUAYc-36" value="" style="edgeStyle=orthogonalEdgeStyle;rounded=0;orthogonalLoop=1;jettySize=auto;startArrow=blockThin;startFill=1;endArrow=none;endFill=0;strokeWidth=1;entryX=0;entryY=0.5;entryDx=0;entryDy=0;" parent="zubyIa7aWpSav51OET3G-1" target="Yq877jy8nlQ7mpjoUAYc-41" edge="1">
          <mxGeometry relative="1" as="geometry">
            <mxPoint x="388.1100000000001" y="494.53999999999996" as="sourcePoint" />
            <mxPoint x="400.11" y="524" as="targetPoint" />
            <Array as="points">
              <mxPoint x="388" y="523" />
              <mxPoint x="403" y="523" />
            </Array>
          </mxGeometry>
        </mxCell>
        <mxCell id="Yq877jy8nlQ7mpjoUAYc-37" value="Serialized&#xa;Data &#xa;Streams" style="text;resizable=0;autosize=1;align=center;verticalAlign=middle;points=[];fillColor=none;strokeColor=none;rounded=0;labelBackgroundColor=none;fontSize=9;" parent="zubyIa7aWpSav51OET3G-1" vertex="1">
          <mxGeometry x="468.00000000000006" y="503.48" width="50" height="40" as="geometry" />
        </mxCell>
        <mxCell id="Yq877jy8nlQ7mpjoUAYc-38" value="" style="edgeStyle=orthogonalEdgeStyle;rounded=0;orthogonalLoop=1;jettySize=auto;startArrow=blockThin;startFill=1;endArrow=none;endFill=0;strokeWidth=1;entryX=1.004;entryY=0.5;entryDx=0;entryDy=0;entryPerimeter=0;" parent="zubyIa7aWpSav51OET3G-1" target="Yq877jy8nlQ7mpjoUAYc-37" edge="1">
          <mxGeometry relative="1" as="geometry">
            <mxPoint x="531" y="496" as="sourcePoint" />
            <mxPoint x="700.9999999999999" y="560.375" as="targetPoint" />
            <Array as="points">
              <mxPoint x="531" y="523" />
              <mxPoint x="518" y="523" />
            </Array>
          </mxGeometry>
        </mxCell>
        <mxCell id="Yq877jy8nlQ7mpjoUAYc-39" value="" style="edgeStyle=orthogonalEdgeStyle;rounded=0;orthogonalLoop=1;jettySize=auto;startArrow=blockThin;startFill=1;endArrow=none;endFill=0;strokeWidth=1;entryX=1;entryY=0.5;entryDx=0;entryDy=0;" parent="zubyIa7aWpSav51OET3G-1" target="Yq877jy8nlQ7mpjoUAYc-40" edge="1">
          <mxGeometry relative="1" as="geometry">
            <mxPoint x="530" y="443" as="sourcePoint" />
            <mxPoint x="518.7655" y="415.95000000000005" as="targetPoint" />
            <Array as="points">
              <mxPoint x="530" y="414" />
            </Array>
          </mxGeometry>
        </mxCell>
        <mxCell id="Yq877jy8nlQ7mpjoUAYc-40" value="Deserialized&#xa;Data&#xa;Streams" style="rounded=1;align=center;verticalAlign=middle;fontSize=9;fontStyle=0;fillColor=none;strokeColor=none;" parent="zubyIa7aWpSav51OET3G-1" vertex="1">
          <mxGeometry x="461.79" y="393.6700000000001" width="54.21" height="38.79" as="geometry" />
        </mxCell>
        <mxCell id="Yq877jy8nlQ7mpjoUAYc-41" value="Deserialized&#xa;Data&#xa;Streams" style="rounded=1;align=center;verticalAlign=middle;fontSize=9;fontStyle=0;fillColor=none;strokeColor=none;" parent="zubyIa7aWpSav51OET3G-1" vertex="1">
          <mxGeometry x="403.11" y="504.09000000000015" width="54.21" height="38.79" as="geometry" />
        </mxCell>
      </root>
    </mxGraphModel>
  </diagram>
</mxfile>
